<?xml version="1.0" encoding="utf-8" standalone="no"?>
<!DOCTYPE svg PUBLIC "-//W3C//DTD SVG 1.1//EN"
  "http://www.w3.org/Graphics/SVG/1.1/DTD/svg11.dtd">
<svg xmlns:xlink="http://www.w3.org/1999/xlink" width="856.8pt" height="496.8pt" viewBox="0 0 856.8 496.8" xmlns="http://www.w3.org/2000/svg" version="1.1">
 <metadata>
  <rdf:RDF xmlns:dc="http://purl.org/dc/elements/1.1/" xmlns:cc="http://creativecommons.org/ns#" xmlns:rdf="http://www.w3.org/1999/02/22-rdf-syntax-ns#">
   <cc:Work>
    <dc:type rdf:resource="http://purl.org/dc/dcmitype/StillImage"/>
    <dc:date>2026-04-26T15:59:45.872556</dc:date>
    <dc:format>image/svg+xml</dc:format>
    <dc:creator>
     <cc:Agent>
      <dc:title>Matplotlib v3.9.4, https://matplotlib.org/</dc:title>
     </cc:Agent>
    </dc:creator>
   </cc:Work>
  </rdf:RDF>
 </metadata>
 <defs>
  <style type="text/css">*{stroke-linejoin: round; stroke-linecap: butt}</style>
 </defs>
 <g id="figure_1">
  <g id="patch_1">
   <path d="M 0 496.8 
L 856.8 496.8 
L 856.8 0 
L 0 0 
z
" style="fill: #ffffff"/>
  </g>
  <g id="axes_1">
   <g id="patch_2">
    <path d="M 52.83 203.605714 
L 256.41 203.605714 
Q 270.45 203.605714 270.45 189.822857 
L 270.45 107.125714 
Q 270.45 93.342857 256.41 93.342857 
L 52.83 93.342857 
Q 38.79 93.342857 38.79 107.125714 
L 38.79 189.822857 
Q 38.79 203.605714 52.83 203.605714 
z
" clip-path="url(#p88c1fc47d4)" style="fill: #dbeafe; stroke: #2563eb; stroke-width: 2; stroke-linejoin: miter"/>
   </g>
   <g id="patch_3">
    <path d="M 312.57 203.605714 
L 516.15 203.605714 
Q 530.19 203.605714 530.19 189.822857 
L 530.19 107.125714 
Q 530.19 93.342857 516.15 93.342857 
L 312.57 93.342857 
Q 298.53 93.342857 298.53 107.125714 
L 298.53 189.822857 
Q 298.53 203.605714 312.57 203.605714 
z
" clip-path="url(#p88c1fc47d4)" style="fill: #fef3c7; stroke: #d97706; stroke-width: 2; stroke-linejoin: miter"/>
   </g>
   <g id="patch_4">
    <path d="M 572.31 203.605714 
L 803.97 203.605714 
Q 818.01 203.605714 818.01 189.822857 
L 818.01 107.125714 
Q 818.01 93.342857 803.97 93.342857 
L 572.31 93.342857 
Q 558.27 93.342857 558.27 107.125714 
L 558.27 189.822857 
Q 558.27 203.605714 572.31 203.605714 
z
" clip-path="url(#p88c1fc47d4)" style="fill: #fce7f3; stroke: #db2777; stroke-width: 2; stroke-linejoin: miter"/>
   </g>
   <g id="patch_5">
    <path d="M 52.83 369 
L 277.47 369 
Q 291.51 369 291.51 355.217143 
L 291.51 286.302857 
Q 291.51 272.52 277.47 272.52 
L 52.83 272.52 
Q 38.79 272.52 38.79 286.302857 
L 38.79 355.217143 
Q 38.79 369 52.83 369 
z
" clip-path="url(#p88c1fc47d4)" style="fill: #f0fdf4; stroke: #16a34a; stroke-width: 1.5; stroke-linejoin: miter"/>
   </g>
   <g id="patch_6">
    <path d="M 319.59 369 
L 544.23 369 
Q 558.27 369 558.27 355.217143 
L 558.27 286.302857 
Q 558.27 272.52 544.23 272.52 
L 319.59 272.52 
Q 305.55 272.52 305.55 286.302857 
L 305.55 355.217143 
Q 305.55 369 319.59 369 
z
" clip-path="url(#p88c1fc47d4)" style="fill: #f0fdf4; stroke: #16a34a; stroke-width: 1.5; stroke-linejoin: miter"/>
   </g>
   <g id="patch_7">
    <path d="M 586.35 369 
L 810.99 369 
Q 825.03 369 825.03 355.217143 
L 825.03 286.302857 
Q 825.03 272.52 810.99 272.52 
L 586.35 272.52 
Q 572.31 272.52 572.31 286.302857 
L 572.31 355.217143 
Q 572.31 369 586.35 369 
z
" clip-path="url(#p88c1fc47d4)" style="fill: #f0fdf4; stroke: #16a34a; stroke-width: 1.5; stroke-linejoin: miter"/>
   </g>
   <g id="line2d_1">
    <path d="M 688.14 227.725714 
L 154.62 227.725714 
" clip-path="url(#p88c1fc47d4)" style="fill: none; stroke-dasharray: 5.55,2.4; stroke-dashoffset: 0; stroke: #db2777; stroke-width: 1.5"/>
   </g>
   <g id="text_1">
    <text style="fill: #1a1a2e; font: 700 18px 'DejaVu Sans', 'Bitstream Vera Sans', 'Computer Modern Sans Serif', 'Lucida Grande', 'Verdana', 'Geneva', 'Lucid', 'Arial', 'Helvetica', 'Avant Garde', sans-serif; text-anchor: middle" x="428.4" y="39.732589" transform="rotate(-0 428.4 39.732589)">DATA FLYWHEEL</text>
   </g>
   <g id="text_2">
    <text style="fill: #666666; font: 11px 'DejaVu Sans', 'Bitstream Vera Sans', 'Computer Modern Sans Serif', 'Lucida Grande', 'Verdana', 'Geneva', 'Lucid', 'Arial', 'Helvetica', 'Avant Garde', sans-serif; text-anchor: middle" x="428.4" y="65.366741" transform="rotate(-0 428.4 65.366741)">Project Go-Big: Scaling from Teleoperation to Internet-Scale Human Video</text>
   </g>
   <g id="text_3">
    <text style="fill: #1e40af; font: 700 12px 'DejaVu Sans', 'Bitstream Vera Sans', 'Computer Modern Sans Serif', 'Lucida Grande', 'Verdana', 'Geneva', 'Lucid', 'Arial', 'Helvetica', 'Avant Garde', sans-serif; text-anchor: middle" x="154.62" y="124.354286" transform="rotate(-0 154.62 124.354286)">Teleoperation</text>
   </g>
   <g id="text_4">
    <text style="fill: #3b82f6; font: 10px 'DejaVu Sans', 'Bitstream Vera Sans', 'Computer Modern Sans Serif', 'Lucida Grande', 'Verdana', 'Geneva', 'Lucid', 'Arial', 'Helvetica', 'Avant Garde', sans-serif; text-anchor: middle" x="154.62" y="151.92" transform="rotate(-0 154.62 151.92)">~500 hours</text>
   </g>
   <g id="text_5">
    <text style="fill: #64748b; font: 9px 'DejaVu Sans', 'Bitstream Vera Sans', 'Computer Modern Sans Serif', 'Lucida Grande', 'Verdana', 'Geneva', 'Lucid', 'Arial', 'Helvetica', 'Avant Garde', sans-serif; text-anchor: middle" x="154.62" y="172.594286" transform="rotate(-0 154.62 172.594286)">High-quality</text>
   </g>
   <g id="text_6">
    <text style="fill: #64748b; font: 9px 'DejaVu Sans', 'Bitstream Vera Sans', 'Computer Modern Sans Serif', 'Lucida Grande', 'Verdana', 'Geneva', 'Lucid', 'Arial', 'Helvetica', 'Avant Garde', sans-serif; text-anchor: middle" x="154.62" y="189.822857" transform="rotate(-0 154.62 189.822857)">multi-robot data</text>
   </g>
   <g id="patch_8">
    <path d="M 268.94094 148.474286 
Q 284.490468 148.474286 297.244911 148.474286 
" style="fill: none; stroke: #2563eb; stroke-width: 2.5; stroke-linecap: round"/>
    <path d="M 293.244911 146.474286 
L 297.244911 148.474286 
L 293.244911 150.474286 
" style="fill: none; stroke: #2563eb; stroke-width: 2.5; stroke-linecap: round"/>
   </g>
   <g id="text_7">
    <text style="fill: #92400e; font: 700 12px 'DejaVu Sans', 'Bitstream Vera Sans', 'Computer Modern Sans Serif', 'Lucida Grande', 'Verdana', 'Geneva', 'Lucid', 'Arial', 'Helvetica', 'Avant Garde', sans-serif; text-anchor: middle" x="414.36" y="124.354286" transform="rotate(-0 414.36 124.354286)">Human Motion</text>
   </g>
   <g id="text_8">
    <text style="fill: #d97706; font: 10px 'DejaVu Sans', 'Bitstream Vera Sans', 'Computer Modern Sans Serif', 'Lucida Grande', 'Verdana', 'Geneva', 'Lucid', 'Arial', 'Helvetica', 'Avant Garde', sans-serif; text-anchor: middle" x="414.36" y="151.92" transform="rotate(-0 414.36 151.92)">&gt;1,000 hours</text>
   </g>
   <g id="text_9">
    <text style="fill: #64748b; font: 9px 'DejaVu Sans', 'Bitstream Vera Sans', 'Computer Modern Sans Serif', 'Lucida Grande', 'Verdana', 'Geneva', 'Lucid', 'Arial', 'Helvetica', 'Avant Garde', sans-serif; text-anchor: middle" x="414.36" y="172.594286" transform="rotate(-0 414.36 172.594286)">Retargeted joint-level</text>
   </g>
   <g id="text_10">
    <text style="fill: #64748b; font: 9px 'DejaVu Sans', 'Bitstream Vera Sans', 'Computer Modern Sans Serif', 'Lucida Grande', 'Verdana', 'Geneva', 'Lucid', 'Arial', 'Helvetica', 'Avant Garde', sans-serif; text-anchor: middle" x="414.36" y="189.822857" transform="rotate(-0 414.36 189.822857)">human movement data</text>
   </g>
   <g id="patch_9">
    <path d="M 528.68094 148.474286 
Q 544.230468 148.474286 556.984911 148.474286 
" style="fill: none; stroke: #d97706; stroke-width: 2.5; stroke-linecap: round"/>
    <path d="M 552.984911 146.474286 
L 556.984911 148.474286 
L 552.984911 150.474286 
" style="fill: none; stroke: #d97706; stroke-width: 2.5; stroke-linecap: round"/>
   </g>
   <g id="text_11">
    <text style="fill: #9d174d; font: 700 12px 'DejaVu Sans', 'Bitstream Vera Sans', 'Computer Modern Sans Serif', 'Lucida Grande', 'Verdana', 'Geneva', 'Lucid', 'Arial', 'Helvetica', 'Avant Garde', sans-serif; text-anchor: middle" x="688.14" y="124.354286" transform="rotate(-0 688.14 124.354286)">Internet-Scale Video</text>
   </g>
   <g id="text_12">
    <text style="fill: #db2777; font: 10px 'DejaVu Sans', 'Bitstream Vera Sans', 'Computer Modern Sans Serif', 'Lucida Grande', 'Verdana', 'Geneva', 'Lucid', 'Arial', 'Helvetica', 'Avant Garde', sans-serif; text-anchor: middle" x="688.14" y="151.92" transform="rotate(-0 688.14 151.92)">Brookfield Partnership</text>
   </g>
   <g id="text_13">
    <text style="fill: #64748b; font: 9px 'DejaVu Sans', 'Bitstream Vera Sans', 'Computer Modern Sans Serif', 'Lucida Grande', 'Verdana', 'Geneva', 'Lucid', 'Arial', 'Helvetica', 'Avant Garde', sans-serif; text-anchor: middle" x="688.14" y="172.594286" transform="rotate(-0 688.14 172.594286)">100K+ residential units</text>
   </g>
   <g id="text_14">
    <text style="fill: #64748b; font: 9px 'DejaVu Sans', 'Bitstream Vera Sans', 'Computer Modern Sans Serif', 'Lucida Grande', 'Verdana', 'Geneva', 'Lucid', 'Arial', 'Helvetica', 'Avant Garde', sans-serif; text-anchor: middle" x="688.14" y="189.822857" transform="rotate(-0 688.14 189.822857)">egocentric human behavior</text>
   </g>
   <g id="patch_10">
    <path d="M 688.14 202.162148 
Q 688.14 213.943794 688.14 224.048389 
" style="fill: none; stroke-dasharray: 5.55,2.4; stroke-dashoffset: 0; stroke: #db2777; stroke-width: 1.5; stroke-linecap: round"/>
    <path d="M 690.14 220.048389 
L 688.14 224.048389 
L 686.14 220.048389 
" style="fill: none; stroke-dasharray: 5.55,2.4; stroke-dashoffset: 0; stroke: #db2777; stroke-width: 1.5; stroke-linecap: round"/>
   </g>
   <g id="patch_11">
    <path d="M 154.62 225.723566 
Q 154.62 213.94192 154.62 203.837325 
" style="fill: none; stroke-dasharray: 5.55,2.4; stroke-dashoffset: 0; stroke: #2563eb; stroke-width: 1.5; stroke-linecap: round"/>
    <path d="M 152.62 207.837325 
L 154.62 203.837325 
L 156.62 207.837325 
" style="fill: none; stroke-dasharray: 5.55,2.4; stroke-dashoffset: 0; stroke: #2563eb; stroke-width: 1.5; stroke-linecap: round"/>
   </g>
   <g id="text_15">
    <text style="fill: #9ca3af; font: italic 10px 'DejaVu Sans', 'Bitstream Vera Sans', 'Computer Modern Sans Serif', 'Lucida Grande', 'Verdana', 'Geneva', 'Lucid', 'Arial', 'Helvetica', 'Avant Garde', sans-serif; text-anchor: middle" x="428.4" y="244.954286" transform="rotate(-0 428.4 244.954286)">Continuous Learning Loop</text>
   </g>
   <g id="text_16">
    <text style="fill: #166534; font: 700 11px 'DejaVu Sans', 'Bitstream Vera Sans', 'Computer Modern Sans Serif', 'Lucida Grande', 'Verdana', 'Geneva', 'Lucid', 'Arial', 'Helvetica', 'Avant Garde', sans-serif; text-anchor: middle" x="165.15" y="303.531429" transform="rotate(-0 165.15 303.531429)">Helix V1</text>
   </g>
   <g id="text_17">
    <text style="fill: #15803d; font: 9px 'DejaVu Sans', 'Bitstream Vera Sans', 'Computer Modern Sans Serif', 'Lucida Grande', 'Verdana', 'Geneva', 'Lucid', 'Arial', 'Helvetica', 'Avant Garde', sans-serif; text-anchor: middle" x="165.15" y="327.651429" transform="rotate(-0 165.15 327.651429)">Upper-body VLA</text>
   </g>
   <g id="text_18">
    <text style="fill: #15803d; font: 9px 'DejaVu Sans', 'Bitstream Vera Sans', 'Computer Modern Sans Serif', 'Lucida Grande', 'Verdana', 'Geneva', 'Lucid', 'Arial', 'Helvetica', 'Avant Garde', sans-serif; text-anchor: middle" x="165.15" y="348.325714" transform="rotate(-0 165.15 348.325714)">35-DoF @ 200Hz</text>
   </g>
   <g id="text_19">
    <text style="fill: #166534; font: 700 11px 'DejaVu Sans', 'Bitstream Vera Sans', 'Computer Modern Sans Serif', 'Lucida Grande', 'Verdana', 'Geneva', 'Lucid', 'Arial', 'Helvetica', 'Avant Garde', sans-serif; text-anchor: middle" x="431.91" y="303.531429" transform="rotate(-0 431.91 303.531429)">Helix 02</text>
   </g>
   <g id="text_20">
    <text style="fill: #15803d; font: 9px 'DejaVu Sans', 'Bitstream Vera Sans', 'Computer Modern Sans Serif', 'Lucida Grande', 'Verdana', 'Geneva', 'Lucid', 'Arial', 'Helvetica', 'Avant Garde', sans-serif; text-anchor: middle" x="431.91" y="327.651429" transform="rotate(-0 431.91 327.651429)">Full-Body Loco-Manipulation</text>
   </g>
   <g id="text_21">
    <text style="fill: #15803d; font: 9px 'DejaVu Sans', 'Bitstream Vera Sans', 'Computer Modern Sans Serif', 'Lucida Grande', 'Verdana', 'Geneva', 'Lucid', 'Arial', 'Helvetica', 'Avant Garde', sans-serif; text-anchor: middle" x="431.91" y="348.325714" transform="rotate(-0 431.91 348.325714)">61 actions / 4min autonomy</text>
   </g>
   <g id="text_22">
    <text style="fill: #166534; font: 700 11px 'DejaVu Sans', 'Bitstream Vera Sans', 'Computer Modern Sans Serif', 'Lucida Grande', 'Verdana', 'Geneva', 'Lucid', 'Arial', 'Helvetica', 'Avant Garde', sans-serif; text-anchor: middle" x="698.67" y="303.531429" transform="rotate(-0 698.67 303.531429)">Zero-Shot Transfer</text>
   </g>
   <g id="text_23">
    <text style="fill: #15803d; font: 9px 'DejaVu Sans', 'Bitstream Vera Sans', 'Computer Modern Sans Serif', 'Lucida Grande', 'Verdana', 'Geneva', 'Lucid', 'Arial', 'Helvetica', 'Avant Garde', sans-serif; text-anchor: middle" x="698.67" y="327.651429" transform="rotate(-0 698.67 327.651429)">Human Video -&gt; Robot</text>
   </g>
   <g id="text_24">
    <text style="fill: #15803d; font: 9px 'DejaVu Sans', 'Bitstream Vera Sans', 'Computer Modern Sans Serif', 'Lucida Grande', 'Verdana', 'Geneva', 'Lucid', 'Arial', 'Helvetica', 'Avant Garde', sans-serif; text-anchor: middle" x="698.67" y="348.325714" transform="rotate(-0 698.67 348.325714)">No robot demos needed</text>
   </g>
   <g id="patch_12">
    <path d="M 165.15 229.723657 
Q 165.15 244.952775 165.15 258.504842 
" style="fill: none; stroke: #16a34a; stroke-width: 1.5; stroke-linecap: round"/>
    <path d="M 167.15 254.504842 
L 165.15 258.504842 
L 163.15 254.504842 
" style="fill: none; stroke: #16a34a; stroke-width: 1.5; stroke-linecap: round"/>
   </g>
   <g id="patch_13">
    <path d="M 431.91 229.723657 
Q 431.91 244.952775 431.91 258.504842 
" style="fill: none; stroke: #16a34a; stroke-width: 1.5; stroke-linecap: round"/>
    <path d="M 433.91 254.504842 
L 431.91 258.504842 
L 429.91 254.504842 
" style="fill: none; stroke: #16a34a; stroke-width: 1.5; stroke-linecap: round"/>
   </g>
   <g id="patch_14">
    <path d="M 698.67 229.723657 
Q 698.67 244.952775 698.67 258.504842 
" style="fill: none; stroke: #16a34a; stroke-width: 1.5; stroke-linecap: round"/>
    <path d="M 700.67 254.504842 
L 698.67 258.504842 
L 696.67 254.504842 
" style="fill: none; stroke: #16a34a; stroke-width: 1.5; stroke-linecap: round"/>
   </g>
   <g id="text_25">
    <text style="fill: #737373; font: italic 10px 'DejaVu Sans', 'Bitstream Vera Sans', 'Computer Modern Sans Serif', 'Lucida Grande', 'Verdana', 'Geneva', 'Lucid', 'Arial', 'Helvetica', 'Avant Garde', sans-serif; text-anchor: middle" x="428.4" y="395.879375" transform="rotate(-0 428.4 395.879375)">More Data -&gt; Better Model -&gt; More Robots -&gt; More Data</text>
   </g>
  </g>
 </g>
 <defs>
  <clipPath id="p88c1fc47d4">
   <rect x="7.2" y="7.2" width="842.4" height="482.4"/>
  </clipPath>
 </defs>
</svg>
