<?xml version="1.0" encoding="utf-8" standalone="no"?>
<!DOCTYPE svg PUBLIC "-//W3C//DTD SVG 1.1//EN"
  "http://www.w3.org/Graphics/SVG/1.1/DTD/svg11.dtd">
<svg xmlns:xlink="http://www.w3.org/1999/xlink" width="795.6pt" height="568.8pt" viewBox="0 0 795.6 568.8" xmlns="http://www.w3.org/2000/svg" version="1.1">
 <metadata>
  <rdf:RDF xmlns:dc="http://purl.org/dc/elements/1.1/" xmlns:cc="http://creativecommons.org/ns#" xmlns:rdf="http://www.w3.org/1999/02/22-rdf-syntax-ns#">
   <cc:Work>
    <dc:type rdf:resource="http://purl.org/dc/dcmitype/StillImage"/>
    <dc:date>2026-04-29T09:06:59.520267</dc:date>
    <dc:format>image/svg+xml</dc:format>
    <dc:creator>
     <cc:Agent>
      <dc:title>Matplotlib v3.9.4, https://matplotlib.org/</dc:title>
     </cc:Agent>
    </dc:creator>
   </cc:Work>
  </rdf:RDF>
 </metadata>
 <defs>
  <style type="text/css">*{stroke-linejoin: round; stroke-linecap: butt}</style>
 </defs>
 <g id="figure_1">
  <g id="patch_1">
   <path d="M 0 568.8 
L 795.6 568.8 
L 795.6 0 
L 0 0 
z
" style="fill: #0d1117"/>
  </g>
  <g id="axes_1">
   <g id="patch_2">
    <path d="M 58.536 164.0952 
L 737.064 164.0952 
Q 745.434 164.0952 745.434 155.7792 
L 745.434 91.4688 
Q 745.434 83.1528 737.064 83.1528 
L 58.536 83.1528 
Q 50.166 83.1528 50.166 91.4688 
L 50.166 155.7792 
Q 50.166 164.0952 58.536 164.0952 
z
" clip-path="url(#paf55ce8c77)" style="fill: #00a4e4; opacity: 0.9; stroke: #30363d; stroke-width: 2; stroke-linejoin: miter"/>
   </g>
   <g id="patch_3">
    <path d="M 58.536 263.8872 
L 737.064 263.8872 
Q 745.434 263.8872 745.434 255.5712 
L 745.434 191.2608 
Q 745.434 182.9448 737.064 182.9448 
L 58.536 182.9448 
Q 50.166 182.9448 50.166 191.2608 
L 50.166 255.5712 
Q 50.166 263.8872 58.536 263.8872 
z
" clip-path="url(#paf55ce8c77)" style="fill: #0077a8; opacity: 0.9; stroke: #30363d; stroke-width: 2; stroke-linejoin: miter"/>
   </g>
   <g id="patch_4">
    <path d="M 58.536 363.6792 
L 737.064 363.6792 
Q 745.434 363.6792 745.434 355.3632 
L 745.434 291.0528 
Q 745.434 282.7368 737.064 282.7368 
L 58.536 282.7368 
Q 50.166 282.7368 50.166 291.0528 
L 50.166 355.3632 
Q 50.166 363.6792 58.536 363.6792 
z
" clip-path="url(#paf55ce8c77)" style="fill: #005f85; opacity: 0.9; stroke: #30363d; stroke-width: 2; stroke-linejoin: miter"/>
   </g>
   <g id="patch_5">
    <path d="M 58.536 463.4712 
L 737.064 463.4712 
Q 745.434 463.4712 745.434 455.1552 
L 745.434 390.8448 
Q 745.434 382.5288 737.064 382.5288 
L 58.536 382.5288 
Q 50.166 382.5288 50.166 390.8448 
L 50.166 455.1552 
Q 50.166 463.4712 58.536 463.4712 
z
" clip-path="url(#paf55ce8c77)" style="fill: #004662; opacity: 0.9; stroke: #30363d; stroke-width: 2; stroke-linejoin: miter"/>
   </g>
   <g id="text_1">
    <!-- Boston Dynamics Atlas Hybrid Architecture -->
    <g style="fill: #e6edf3" transform="translate(181.732812 34.95725) scale(0.2 -0.2)">
     <defs>
      <path id="HiraginoSansGB-W3-42" d="M 2630 38 
C 3610 38 4173 525 4173 1382 
C 4173 1792 4038 2118 3776 2342 
C 3603 2490 3450 2554 3155 2611 
C 3411 2694 3526 2752 3661 2867 
C 3891 3072 4006 3354 4006 3725 
C 4006 4480 3488 4902 2560 4902 
L 1197 4902 
C 826 4902 698 4902 499 4915 
C 538 4685 550 4512 550 4237 
L 550 813 
C 550 442 538 275 493 19 
C 717 32 915 38 1197 38 
L 2630 38 
z
M 1043 2816 
L 1043 4467 
L 2547 4467 
C 3181 4467 3501 4198 3501 3667 
C 3501 3130 3149 2816 2554 2816 
L 1043 2816 
z
M 1043 2381 
L 2573 2381 
C 3283 2381 3654 2054 3654 1421 
C 3654 806 3283 474 2586 474 
L 1043 474 
L 1043 2381 
z
" transform="scale(0.015625)"/>
      <path id="HiraginoSansGB-W3-6f" d="M 2010 -45 
C 3040 -45 3706 672 3706 1766 
C 3706 2867 3046 3571 2003 3571 
C 960 3571 294 2867 294 1760 
C 294 653 960 -45 2010 -45 
z
M 2016 3168 
C 2752 3168 3213 2630 3213 1766 
C 3213 902 2752 371 2003 371 
C 1254 371 787 902 787 1773 
C 787 2637 1254 3168 2016 3168 
z
" transform="scale(0.015625)"/>
      <path id="HiraginoSansGB-W3-73" d="M 269 973 
C 333 710 378 602 474 467 
C 710 141 1158 -32 1741 -32 
C 2618 -32 3162 365 3162 1005 
C 3162 1267 3053 1510 2854 1670 
C 2662 1818 2458 1894 1837 2035 
C 1440 2118 1274 2170 1126 2253 
C 986 2330 909 2458 909 2605 
C 909 2944 1242 3181 1709 3181 
C 1997 3181 2227 3098 2374 2938 
C 2464 2848 2496 2771 2534 2598 
L 3040 2682 
C 2957 2976 2867 3123 2701 3264 
C 2470 3469 2131 3571 1696 3571 
C 1267 3571 922 3456 698 3238 
C 518 3066 422 2848 422 2618 
C 422 2336 544 2099 768 1946 
C 986 1798 1203 1722 1715 1613 
C 2189 1517 2317 1478 2470 1382 
C 2605 1299 2669 1165 2669 986 
C 2669 608 2317 371 1760 371 
C 1434 371 1178 448 1018 595 
C 890 710 838 826 794 1062 
L 269 973 
z
" transform="scale(0.015625)"/>
      <path id="HiraginoSansGB-W3-74" d="M 858 4442 
C 890 4230 902 3987 902 3731 
L 902 3488 
L 646 3488 
C 378 3488 250 3494 70 3526 
L 70 3040 
C 282 3066 429 3078 646 3078 
L 902 3078 
L 902 787 
C 902 486 954 301 1082 173 
C 1210 45 1427 -26 1709 -26 
C 1971 -26 2170 13 2432 122 
L 2291 570 
C 2080 442 1952 403 1786 403 
C 1651 403 1542 442 1472 512 
C 1414 570 1389 666 1389 851 
L 1389 3078 
L 1696 3078 
C 1984 3078 2144 3072 2349 3040 
L 2349 3526 
C 2125 3494 1990 3488 1696 3488 
L 1389 3488 
L 1389 3731 
C 1389 4006 1402 4237 1434 4442 
L 858 4442 
z
" transform="scale(0.015625)"/>
      <path id="HiraginoSansGB-W3-6e" d="M 1030 38 
C 998 288 986 480 986 762 
L 986 1997 
C 1037 2253 1114 2413 1280 2630 
C 1549 2976 1837 3136 2195 3136 
C 2701 3136 2976 2829 2976 2253 
L 2976 762 
C 2976 480 2963 288 2931 38 
L 3507 38 
C 3475 250 3462 429 3462 755 
L 3462 2336 
C 3462 2650 3405 2886 3283 3072 
C 3078 3386 2720 3552 2259 3552 
C 1683 3552 1267 3302 966 2778 
C 986 2925 986 2976 986 3053 
L 986 3488 
L 454 3488 
C 493 3232 506 3053 506 2765 
L 506 762 
C 506 454 493 282 454 38 
L 1030 38 
z
" transform="scale(0.015625)"/>
      <path id="HiraginoSansGB-W3-20" transform="scale(0.015625)"/>
      <path id="HiraginoSansGB-W3-44" d="M 544 781 
C 544 461 531 269 493 19 
C 717 32 890 38 1197 38 
L 2278 38 
C 2918 38 3450 230 3834 608 
C 4275 1037 4518 1702 4518 2502 
C 4518 4032 3706 4902 2278 4902 
L 1197 4902 
C 890 4902 717 4909 493 4922 
C 531 4653 544 4467 544 4192 
L 544 781 
z
M 1043 486 
L 1043 4454 
L 2291 4454 
C 2816 4454 3213 4314 3494 4019 
C 3834 3680 4000 3168 4000 2502 
C 4000 1843 3814 1299 3462 941 
C 3174 634 2771 486 2266 486 
L 1043 486 
z
" transform="scale(0.015625)"/>
      <path id="HiraginoSansGB-W3-79" d="M 1587 141 
L 1293 -563 
C 1190 -800 1037 -915 819 -915 
C 698 -915 608 -890 429 -806 
L 294 -1280 
C 538 -1331 678 -1350 819 -1350 
C 1274 -1350 1555 -1165 1722 -755 
L 3155 2739 
C 3322 3142 3430 3392 3469 3488 
L 2874 3488 
C 2848 3309 2790 3136 2662 2810 
L 1837 659 
L 909 2810 
C 806 3053 723 3309 691 3488 
L 64 3488 
C 128 3373 128 3373 416 2739 
L 1587 141 
z
" transform="scale(0.015625)"/>
      <path id="HiraginoSansGB-W3-61" d="M 2733 38 
L 3251 38 
C 3213 294 3200 454 3200 742 
L 3200 2541 
C 3200 3232 2765 3590 1920 3590 
C 1440 3590 1056 3469 794 3226 
C 634 3085 550 2950 435 2656 
L 934 2547 
C 998 2739 1050 2829 1133 2918 
C 1312 3104 1574 3194 1926 3194 
C 2458 3194 2733 2970 2733 2534 
L 2733 2163 
C 1946 2144 1638 2106 1261 1997 
C 666 1830 346 1459 346 947 
C 346 339 774 -26 1478 -26 
C 1696 -26 1926 19 2144 102 
C 2362 186 2483 269 2733 493 
L 2733 38 
z
M 2733 1370 
C 2733 1114 2682 979 2534 819 
C 2285 544 1882 365 1510 365 
C 1094 365 832 589 832 941 
C 832 1248 992 1466 1318 1600 
C 1606 1722 1971 1766 2733 1786 
L 2733 1370 
z
" transform="scale(0.015625)"/>
      <path id="HiraginoSansGB-W3-6d" d="M 1018 38 
C 986 294 973 467 973 762 
L 973 2016 
C 973 2182 1069 2483 1184 2656 
C 1382 2963 1690 3142 2022 3142 
C 2483 3142 2739 2835 2739 2272 
L 2739 762 
C 2739 435 2726 269 2694 38 
L 3270 38 
C 3238 256 3226 435 3226 755 
L 3226 2016 
C 3226 2208 3315 2490 3437 2675 
C 3622 2970 3923 3142 4243 3142 
C 4755 3142 4979 2880 4979 2272 
L 4979 762 
C 4979 422 4973 275 4934 38 
L 5510 38 
C 5478 262 5466 435 5466 755 
L 5466 2336 
C 5466 2714 5402 2963 5248 3168 
C 5056 3424 4736 3558 4314 3558 
C 3776 3558 3430 3354 3130 2861 
C 3066 3053 3027 3130 2931 3232 
C 2739 3450 2470 3558 2106 3558 
C 1734 3558 1421 3443 1203 3226 
C 1075 3091 1018 3014 960 2906 
C 966 3027 973 3104 973 3136 
L 973 3488 
L 454 3488 
C 486 3258 499 3085 499 2765 
L 499 762 
C 499 461 486 269 454 38 
L 1018 38 
z
" transform="scale(0.015625)"/>
      <path id="HiraginoSansGB-W3-69" d="M 448 4902 
L 448 4333 
L 1069 4333 
L 1069 4902 
L 448 4902 
z
M 467 3488 
C 499 3264 512 3072 512 2765 
L 512 762 
C 512 493 499 314 467 38 
L 1043 38 
C 1011 288 998 467 998 762 
L 998 2765 
C 998 3085 1011 3264 1043 3488 
L 467 3488 
z
" transform="scale(0.015625)"/>
      <path id="HiraginoSansGB-W3-63" d="M 3373 2579 
C 3296 2765 3238 2867 3149 2989 
C 2874 3373 2445 3578 1914 3578 
C 934 3578 294 2854 294 1747 
C 294 653 941 -45 1946 -45 
C 2464 -45 2874 141 3155 493 
C 3264 634 3328 755 3418 986 
L 2938 1114 
C 2893 960 2861 883 2797 787 
C 2630 525 2330 378 1965 378 
C 1248 378 787 915 787 1760 
C 787 2618 1235 3168 1939 3168 
C 2413 3168 2720 2931 2906 2432 
L 3373 2579 
z
" transform="scale(0.015625)"/>
      <path id="HiraginoSansGB-W3-41" d="M 4710 38 
C 4614 205 4531 390 4371 774 
L 2938 4307 
C 2778 4698 2746 4781 2720 4902 
L 2074 4902 
C 2042 4755 1990 4608 1869 4307 
L 435 774 
C 262 346 218 250 90 38 
L 755 38 
C 800 262 858 448 954 691 
L 1286 1517 
L 3520 1517 
L 3853 691 
C 3930 493 4000 269 4051 38 
L 4710 38 
z
M 3366 1958 
L 1440 1958 
L 2259 4070 
C 2272 4096 2291 4166 2330 4269 
C 2342 4314 2368 4384 2400 4480 
C 2522 4128 2522 4122 2541 4070 
L 3366 1958 
z
" transform="scale(0.015625)"/>
      <path id="HiraginoSansGB-W3-6c" d="M 454 4902 
C 486 4672 499 4499 499 4186 
L 499 755 
C 499 467 486 269 454 38 
L 1030 38 
C 998 294 986 467 986 755 
L 986 4179 
C 986 4499 998 4672 1030 4902 
L 454 4902 
z
" transform="scale(0.015625)"/>
      <path id="HiraginoSansGB-W3-48" d="M 3885 4902 
C 3923 4685 3936 4486 3936 4186 
L 3936 2829 
L 1043 2829 
L 1043 4198 
C 1043 4499 1056 4666 1094 4902 
L 493 4902 
C 531 4678 544 4493 544 4186 
L 544 755 
C 544 442 531 256 493 38 
L 1094 38 
C 1056 269 1043 435 1043 755 
L 1043 2374 
L 3936 2374 
L 3936 755 
C 3936 448 3923 275 3885 38 
L 4486 38 
C 4448 288 4435 442 4435 755 
L 4435 4198 
C 4435 4499 4448 4659 4486 4902 
L 3885 4902 
z
" transform="scale(0.015625)"/>
      <path id="HiraginoSansGB-W3-62" d="M 966 38 
L 966 397 
C 966 480 960 531 947 653 
C 1050 499 1107 429 1248 320 
C 1542 77 1837 -26 2240 -26 
C 3238 -26 3840 653 3840 1779 
C 3840 2893 3251 3558 2266 3558 
C 1683 3558 1248 3328 947 2854 
C 966 3021 973 3136 973 3309 
L 973 4173 
C 973 4480 986 4666 1018 4902 
L 454 4902 
C 486 4653 499 4448 499 4179 
L 499 774 
C 499 467 486 282 454 38 
L 966 38 
z
M 3347 1786 
C 3347 909 2925 390 2208 390 
C 1472 390 973 954 973 1779 
C 973 2598 1472 3149 2227 3149 
C 2938 3149 3347 2650 3347 1786 
z
" transform="scale(0.015625)"/>
      <path id="HiraginoSansGB-W3-72" d="M 2669 3488 
C 2400 3533 2291 3546 2099 3546 
C 1792 3546 1574 3482 1331 3322 
C 1197 3232 1101 3130 979 2931 
C 986 2976 986 3072 986 3123 
L 986 3488 
L 454 3488 
C 486 3258 499 3085 499 2765 
L 499 762 
C 499 499 486 333 454 38 
L 1030 38 
C 998 288 986 467 986 755 
L 986 2061 
C 1011 2349 1069 2502 1222 2701 
C 1414 2957 1683 3091 2010 3091 
C 2170 3091 2285 3072 2528 2995 
L 2669 3488 
z
" transform="scale(0.015625)"/>
      <path id="HiraginoSansGB-W3-64" d="M 3162 38 
L 3674 38 
C 3642 288 3629 454 3629 774 
L 3629 4179 
C 3629 4461 3642 4646 3674 4902 
L 3110 4902 
C 3142 4659 3155 4474 3155 4173 
L 3155 3315 
C 3155 3168 3155 3110 3174 2976 
L 3181 2880 
C 2899 3322 2451 3558 1869 3558 
C 909 3558 294 2861 294 1766 
C 294 653 896 -26 1882 -26 
C 2464 -26 2880 198 3181 666 
C 3168 557 3162 442 3162 352 
L 3162 38 
z
M 1920 3142 
C 2259 3142 2566 3021 2790 2803 
C 3021 2579 3149 2208 3149 1786 
C 3149 941 2669 397 1920 397 
C 1562 397 1261 531 1062 781 
C 896 992 800 1357 800 1779 
C 800 2630 1222 3142 1920 3142 
z
" transform="scale(0.015625)"/>
      <path id="HiraginoSansGB-W3-68" d="M 1024 38 
C 992 288 979 480 979 762 
L 979 1990 
C 1037 2259 1120 2432 1299 2662 
C 1549 2976 1843 3130 2202 3130 
C 2701 3130 2976 2829 2976 2272 
L 2976 762 
C 2976 442 2963 250 2931 38 
L 3507 38 
C 3475 275 3462 461 3462 755 
L 3462 2362 
C 3462 3110 3014 3552 2266 3552 
C 1875 3552 1581 3443 1306 3206 
C 1152 3078 1082 2982 954 2771 
C 973 2938 973 2989 973 3091 
L 973 4173 
C 973 4499 986 4666 1024 4902 
L 454 4902 
C 486 4666 499 4499 499 4179 
L 499 762 
C 499 442 486 269 454 38 
L 1024 38 
z
" transform="scale(0.015625)"/>
      <path id="HiraginoSansGB-W3-65" d="M 3475 1690 
C 3462 1862 3437 2112 3430 2182 
C 3302 3040 2707 3571 1882 3571 
C 922 3571 294 2854 294 1760 
C 294 653 928 -51 1933 -51 
C 2400 -51 2790 102 3091 397 
C 3238 544 3322 659 3443 928 
L 2995 1107 
C 2816 614 2458 358 1939 358 
C 1555 358 1242 512 1037 794 
C 864 1024 800 1261 781 1690 
L 3475 1690 
z
M 800 2093 
C 838 2336 870 2451 960 2611 
C 1152 2970 1478 3168 1869 3168 
C 2176 3168 2426 3072 2624 2880 
C 2829 2682 2925 2451 2963 2093 
L 800 2093 
z
" transform="scale(0.015625)"/>
      <path id="HiraginoSansGB-W3-75" d="M 2970 38 
L 3501 38 
C 3462 294 3450 474 3450 762 
L 3450 2765 
C 3450 3059 3462 3264 3494 3488 
L 2925 3488 
C 2957 3264 2970 3040 2970 2765 
L 2970 1530 
C 2912 1274 2842 1114 2675 890 
C 2419 544 2118 384 1754 384 
C 1254 384 979 704 979 1274 
L 979 2765 
C 979 3046 992 3264 1024 3488 
L 448 3488 
C 480 3283 493 3059 493 2771 
L 493 1190 
C 493 883 557 634 672 448 
C 877 141 1235 -26 1696 -26 
C 2272 -26 2669 211 2989 736 
C 2970 570 2970 525 2970 454 
L 2970 38 
z
" transform="scale(0.015625)"/>
     </defs>
     <use xlink:href="#HiraginoSansGB-W3-42"/>
     <use xlink:href="#HiraginoSansGB-W3-6f" x="71.199982"/>
     <use xlink:href="#HiraginoSansGB-W3-73" x="133.699966"/>
     <use xlink:href="#HiraginoSansGB-W3-74" x="187.399963"/>
     <use xlink:href="#HiraginoSansGB-W3-6f" x="226.59996"/>
     <use xlink:href="#HiraginoSansGB-W3-6e" x="289.099945"/>
     <use xlink:href="#HiraginoSansGB-W3-20" x="350.899933"/>
     <use xlink:href="#HiraginoSansGB-W3-44" x="384.199921"/>
     <use xlink:href="#HiraginoSansGB-W3-79" x="459.999908"/>
     <use xlink:href="#HiraginoSansGB-W3-6e" x="515.399902"/>
     <use xlink:href="#HiraginoSansGB-W3-61" x="577.19989"/>
     <use xlink:href="#HiraginoSansGB-W3-6d" x="634.699875"/>
     <use xlink:href="#HiraginoSansGB-W3-69" x="727.799866"/>
     <use xlink:href="#HiraginoSansGB-W3-63" x="751.599854"/>
     <use xlink:href="#HiraginoSansGB-W3-73" x="809.399841"/>
     <use xlink:href="#HiraginoSansGB-W3-20" x="863.099838"/>
     <use xlink:href="#HiraginoSansGB-W3-41" x="896.399826"/>
     <use xlink:href="#HiraginoSansGB-W3-74" x="971.399811"/>
     <use xlink:href="#HiraginoSansGB-W3-6c" x="1010.599808"/>
     <use xlink:href="#HiraginoSansGB-W3-61" x="1033.799805"/>
     <use xlink:href="#HiraginoSansGB-W3-73" x="1091.299789"/>
     <use xlink:href="#HiraginoSansGB-W3-20" x="1144.999786"/>
     <use xlink:href="#HiraginoSansGB-W3-48" x="1178.299774"/>
     <use xlink:href="#HiraginoSansGB-W3-79" x="1256.099762"/>
     <use xlink:href="#HiraginoSansGB-W3-62" x="1311.499756"/>
     <use xlink:href="#HiraginoSansGB-W3-72" x="1376.099747"/>
     <use xlink:href="#HiraginoSansGB-W3-69" x="1419.099731"/>
     <use xlink:href="#HiraginoSansGB-W3-64" x="1442.899719"/>
     <use xlink:href="#HiraginoSansGB-W3-20" x="1507.49971"/>
     <use xlink:href="#HiraginoSansGB-W3-41" x="1540.799698"/>
     <use xlink:href="#HiraginoSansGB-W3-72" x="1615.799683"/>
     <use xlink:href="#HiraginoSansGB-W3-63" x="1658.799667"/>
     <use xlink:href="#HiraginoSansGB-W3-68" x="1716.599655"/>
     <use xlink:href="#HiraginoSansGB-W3-69" x="1778.299652"/>
     <use xlink:href="#HiraginoSansGB-W3-74" x="1802.09964"/>
     <use xlink:href="#HiraginoSansGB-W3-65" x="1841.299637"/>
     <use xlink:href="#HiraginoSansGB-W3-63" x="1900.099625"/>
     <use xlink:href="#HiraginoSansGB-W3-74" x="1957.899612"/>
     <use xlink:href="#HiraginoSansGB-W3-75" x="1997.099609"/>
     <use xlink:href="#HiraginoSansGB-W3-72" x="2058.899597"/>
     <use xlink:href="#HiraginoSansGB-W3-65" x="2101.899582"/>
    </g>
   </g>
   <g id="text_2">
    <!-- MPC + RL + Neural Networks: Layered Reliability with Learned Edge Cases -->
    <g style="fill: #8b949e" transform="translate(157.103984 58.022906) scale(0.13 -0.13)">
     <defs>
      <path id="HiraginoSansGB-W3-4d" d="M 2554 710 
C 2682 422 2758 205 2790 38 
L 3245 38 
C 3296 250 3360 416 3488 704 
L 4794 3578 
C 4915 3840 5005 4096 5069 4358 
C 5043 4096 5024 3750 5024 3571 
L 5024 794 
C 5024 486 5011 256 4973 38 
L 5555 38 
C 5517 269 5504 442 5504 794 
L 5504 4141 
C 5504 4474 5517 4659 5555 4902 
L 4819 4902 
C 4781 4717 4710 4518 4602 4269 
L 3027 742 
L 1446 4269 
C 1350 4480 1274 4710 1235 4902 
L 493 4902 
C 531 4666 544 4461 544 4141 
L 544 794 
C 544 461 531 275 493 38 
L 1075 38 
C 1037 256 1024 454 1024 794 
L 1024 3533 
C 1024 3686 998 4083 979 4358 
C 1101 3968 1171 3770 1267 3565 
L 2554 710 
z
" transform="scale(0.015625)"/>
      <path id="HiraginoSansGB-W3-50" d="M 1094 38 
C 1056 256 1043 454 1043 762 
L 1043 2022 
L 2470 2022 
C 3469 2022 4045 2566 4045 3507 
C 4045 4397 3488 4902 2502 4902 
L 1197 4902 
C 902 4902 723 4909 493 4922 
C 531 4653 544 4454 544 4192 
L 544 755 
C 544 454 531 269 493 38 
L 1094 38 
z
M 1043 2464 
L 1043 4461 
L 2470 4461 
C 3162 4461 3533 4122 3533 3482 
C 3533 2829 3149 2464 2470 2464 
L 1043 2464 
z
" transform="scale(0.015625)"/>
      <path id="HiraginoSansGB-W3-43" d="M 4461 3667 
C 4307 4064 4186 4256 3962 4474 
C 3616 4819 3130 4992 2528 4992 
C 1920 4992 1434 4806 1062 4448 
C 589 3981 333 3283 333 2458 
C 333 1658 576 960 1024 512 
C 1389 141 1907 -51 2522 -51 
C 3238 -51 3821 211 4179 691 
C 4333 896 4416 1075 4525 1453 
L 3994 1581 
C 3936 1286 3872 1126 3738 941 
C 3475 595 3046 403 2541 403 
C 1510 403 851 1210 851 2477 
C 851 3750 1504 4544 2541 4544 
C 3008 4544 3392 4384 3648 4083 
C 3782 3930 3853 3795 3949 3520 
L 4461 3667 
z
" transform="scale(0.015625)"/>
      <path id="HiraginoSansGB-W3-2b" d="M 2323 1549 
L 3866 1549 
L 3866 1984 
L 2323 1984 
L 2323 3526 
L 1875 3526 
L 1875 1984 
L 326 1984 
L 326 1549 
L 1875 1549 
L 1875 0 
L 2323 0 
L 2323 1549 
z
" transform="scale(0.015625)"/>
      <path id="HiraginoSansGB-W3-52" d="M 4410 38 
C 4320 192 4230 384 4122 634 
C 3923 1075 3770 1408 3616 1709 
C 3386 2163 3226 2336 2963 2413 
C 3309 2490 3469 2566 3654 2733 
C 3917 2957 4038 3264 4038 3674 
C 4038 4467 3526 4902 2598 4902 
L 1190 4902 
C 896 4902 717 4909 493 4922 
C 531 4666 544 4461 544 4186 
L 544 755 
C 544 442 531 269 493 38 
L 1088 38 
C 1050 269 1037 435 1037 762 
L 1037 2259 
L 2221 2259 
C 2733 2259 2982 2010 3354 1133 
C 3622 493 3712 230 3731 38 
L 4410 38 
z
M 1037 2701 
L 1037 4461 
L 2592 4461 
C 3200 4461 3520 4166 3520 3622 
C 3520 3347 3443 3136 3277 2976 
C 3104 2803 2842 2701 2554 2701 
L 1037 2701 
z
" transform="scale(0.015625)"/>
      <path id="HiraginoSansGB-W3-4c" d="M 3059 38 
C 3418 38 3597 26 3802 -6 
L 3802 538 
C 3552 506 3379 493 3059 493 
L 1043 493 
L 1043 4147 
C 1043 4499 1056 4666 1094 4902 
L 493 4902 
C 531 4678 544 4480 544 4147 
L 544 781 
C 544 467 531 262 493 19 
C 717 32 896 38 1190 38 
L 3059 38 
z
" transform="scale(0.015625)"/>
      <path id="HiraginoSansGB-W3-4e" d="M 506 4902 
C 544 4672 557 4480 557 4186 
L 557 800 
C 557 467 544 243 506 38 
L 1101 38 
C 1062 250 1050 461 1050 800 
L 1050 3533 
C 1050 3699 1037 4013 1011 4314 
C 1101 4141 1312 3776 1363 3699 
L 3418 614 
C 3590 352 3661 224 3750 38 
L 4448 38 
C 4410 243 4397 435 4397 755 
L 4397 4166 
C 4397 4493 4410 4672 4448 4902 
L 3853 4902 
C 3891 4678 3904 4480 3904 4166 
L 3904 1453 
C 3904 1395 3917 1114 3942 602 
C 3789 877 3597 1190 3526 1299 
L 1504 4326 
C 1318 4614 1235 4755 1178 4902 
L 506 4902 
z
" transform="scale(0.015625)"/>
      <path id="HiraginoSansGB-W3-77" d="M 3782 38 
C 3808 166 3834 262 3917 518 
L 4608 2733 
C 4723 3098 4806 3354 4858 3488 
L 4275 3488 
C 4262 3302 4218 3066 4134 2790 
L 3654 1165 
C 3642 1126 3610 979 3552 730 
C 3539 774 3539 774 3514 870 
C 3488 960 3450 1101 3430 1158 
L 2816 3002 
C 2752 3194 2707 3373 2688 3488 
L 2259 3488 
C 2246 3373 2202 3194 2131 3002 
L 1523 1190 
C 1504 1133 1427 877 1389 730 
C 1344 954 1306 1088 1274 1197 
L 806 2790 
C 717 3072 672 3290 659 3488 
L 70 3488 
C 147 3270 250 2970 326 2733 
L 1011 525 
C 1114 211 1114 198 1152 38 
L 1600 38 
C 1619 147 1670 333 1734 518 
L 2355 2368 
C 2374 2432 2426 2605 2477 2784 
C 2541 2547 2573 2413 2586 2381 
L 3213 518 
C 3270 339 3315 173 3341 38 
L 3782 38 
z
" transform="scale(0.015625)"/>
      <path id="HiraginoSansGB-W3-6b" d="M 454 4902 
C 486 4672 499 4499 499 4179 
L 499 762 
C 499 454 486 269 454 38 
L 1024 38 
C 992 262 979 467 979 755 
L 979 1293 
L 1523 1811 
L 2374 646 
C 2694 218 2707 192 2778 38 
L 3507 38 
C 3366 179 3334 218 2950 710 
L 1869 2106 
L 2758 2931 
C 2771 2944 2803 2982 2861 3034 
C 2950 3123 3027 3194 3091 3251 
C 3264 3405 3264 3405 3354 3488 
L 2592 3488 
C 2502 3354 2413 3245 2138 2982 
L 979 1862 
L 979 4179 
C 979 4506 992 4672 1024 4902 
L 454 4902 
z
" transform="scale(0.015625)"/>
      <path id="HiraginoSansGB-W3-3a" d="M 1082 3488 
L 448 3488 
L 448 2854 
L 1082 2854 
L 1082 3488 
z
M 1082 38 
L 1082 672 
L 448 672 
L 448 38 
L 1082 38 
z
" transform="scale(0.015625)"/>
      <path id="HiraginoSansGB-W3-45" d="M 3789 531 
C 3552 499 3373 486 3078 486 
L 1050 486 
L 1050 2368 
L 2733 2368 
C 3066 2368 3232 2355 3450 2323 
L 3450 2861 
C 3206 2829 3014 2816 2733 2816 
L 1050 2816 
L 1050 4454 
L 3021 4454 
C 3341 4454 3514 4442 3738 4410 
L 3738 4947 
C 3520 4915 3302 4902 3021 4902 
L 1197 4902 
C 890 4902 717 4909 493 4922 
C 531 4640 544 4467 544 4192 
L 544 781 
C 544 454 531 262 493 19 
C 710 32 890 38 1197 38 
L 3072 38 
C 3411 38 3584 26 3789 -6 
L 3789 531 
z
" transform="scale(0.015625)"/>
      <path id="HiraginoSansGB-W3-67" d="M 442 -698 
C 864 -1158 1261 -1338 1894 -1338 
C 2477 -1338 2957 -1165 3226 -851 
C 3482 -550 3597 -147 3597 480 
L 3597 2771 
C 3597 3072 3610 3238 3642 3488 
L 3130 3488 
L 3130 3123 
C 3130 3040 3136 2989 3142 2880 
C 2880 3328 2470 3552 1914 3552 
C 922 3552 294 2861 294 1773 
C 294 704 909 32 1875 32 
C 2266 32 2624 147 2867 365 
C 2976 461 3046 544 3142 717 
C 3117 186 3091 -45 3027 -230 
C 2861 -691 2470 -934 1914 -934 
C 1568 -934 1299 -845 1056 -634 
C 979 -576 941 -531 851 -410 
L 442 -698 
z
M 794 1773 
C 794 2624 1229 3149 1939 3149 
C 2656 3149 3117 2630 3117 1824 
C 3117 992 2630 435 1901 435 
C 1216 435 794 941 794 1773 
z
" transform="scale(0.015625)"/>
     </defs>
     <use xlink:href="#HiraginoSansGB-W3-4d"/>
     <use xlink:href="#HiraginoSansGB-W3-50" x="94.499985"/>
     <use xlink:href="#HiraginoSansGB-W3-43" x="160.699982"/>
     <use xlink:href="#HiraginoSansGB-W3-20" x="236.299973"/>
     <use xlink:href="#HiraginoSansGB-W3-2b" x="269.59996"/>
     <use xlink:href="#HiraginoSansGB-W3-20" x="335.199951"/>
     <use xlink:href="#HiraginoSansGB-W3-52" x="368.499939"/>
     <use xlink:href="#HiraginoSansGB-W3-4c" x="441.09993"/>
     <use xlink:href="#HiraginoSansGB-W3-20" x="501.299927"/>
     <use xlink:href="#HiraginoSansGB-W3-2b" x="534.599915"/>
     <use xlink:href="#HiraginoSansGB-W3-20" x="600.199905"/>
     <use xlink:href="#HiraginoSansGB-W3-4e" x="633.499893"/>
     <use xlink:href="#HiraginoSansGB-W3-65" x="710.899887"/>
     <use xlink:href="#HiraginoSansGB-W3-75" x="769.699875"/>
     <use xlink:href="#HiraginoSansGB-W3-72" x="831.499863"/>
     <use xlink:href="#HiraginoSansGB-W3-61" x="874.499847"/>
     <use xlink:href="#HiraginoSansGB-W3-6c" x="931.999832"/>
     <use xlink:href="#HiraginoSansGB-W3-20" x="955.199829"/>
     <use xlink:href="#HiraginoSansGB-W3-4e" x="988.499817"/>
     <use xlink:href="#HiraginoSansGB-W3-65" x="1065.899811"/>
     <use xlink:href="#HiraginoSansGB-W3-74" x="1124.699799"/>
     <use xlink:href="#HiraginoSansGB-W3-77" x="1163.899796"/>
     <use xlink:href="#HiraginoSansGB-W3-6f" x="1240.89978"/>
     <use xlink:href="#HiraginoSansGB-W3-72" x="1303.399765"/>
     <use xlink:href="#HiraginoSansGB-W3-6b" x="1346.39975"/>
     <use xlink:href="#HiraginoSansGB-W3-73" x="1403.899734"/>
     <use xlink:href="#HiraginoSansGB-W3-3a" x="1457.599731"/>
     <use xlink:href="#HiraginoSansGB-W3-20" x="1481.599716"/>
     <use xlink:href="#HiraginoSansGB-W3-4c" x="1514.899704"/>
     <use xlink:href="#HiraginoSansGB-W3-61" x="1575.099701"/>
     <use xlink:href="#HiraginoSansGB-W3-79" x="1632.599686"/>
     <use xlink:href="#HiraginoSansGB-W3-65" x="1687.99968"/>
     <use xlink:href="#HiraginoSansGB-W3-72" x="1746.799667"/>
     <use xlink:href="#HiraginoSansGB-W3-65" x="1789.799652"/>
     <use xlink:href="#HiraginoSansGB-W3-64" x="1848.59964"/>
     <use xlink:href="#HiraginoSansGB-W3-20" x="1913.199631"/>
     <use xlink:href="#HiraginoSansGB-W3-52" x="1946.499619"/>
     <use xlink:href="#HiraginoSansGB-W3-65" x="2019.099609"/>
     <use xlink:href="#HiraginoSansGB-W3-6c" x="2077.899597"/>
     <use xlink:href="#HiraginoSansGB-W3-69" x="2101.099594"/>
     <use xlink:href="#HiraginoSansGB-W3-61" x="2124.899582"/>
     <use xlink:href="#HiraginoSansGB-W3-62" x="2182.399567"/>
     <use xlink:href="#HiraginoSansGB-W3-69" x="2246.999557"/>
     <use xlink:href="#HiraginoSansGB-W3-6c" x="2270.799545"/>
     <use xlink:href="#HiraginoSansGB-W3-69" x="2293.999542"/>
     <use xlink:href="#HiraginoSansGB-W3-74" x="2317.79953"/>
     <use xlink:href="#HiraginoSansGB-W3-79" x="2356.999527"/>
     <use xlink:href="#HiraginoSansGB-W3-20" x="2412.399521"/>
     <use xlink:href="#HiraginoSansGB-W3-77" x="2445.699509"/>
     <use xlink:href="#HiraginoSansGB-W3-69" x="2522.699493"/>
     <use xlink:href="#HiraginoSansGB-W3-74" x="2546.499481"/>
     <use xlink:href="#HiraginoSansGB-W3-68" x="2585.699478"/>
     <use xlink:href="#HiraginoSansGB-W3-20" x="2647.399475"/>
     <use xlink:href="#HiraginoSansGB-W3-4c" x="2680.699463"/>
     <use xlink:href="#HiraginoSansGB-W3-65" x="2740.89946"/>
     <use xlink:href="#HiraginoSansGB-W3-61" x="2799.699448"/>
     <use xlink:href="#HiraginoSansGB-W3-72" x="2857.199432"/>
     <use xlink:href="#HiraginoSansGB-W3-6e" x="2900.199417"/>
     <use xlink:href="#HiraginoSansGB-W3-65" x="2961.999405"/>
     <use xlink:href="#HiraginoSansGB-W3-64" x="3020.799393"/>
     <use xlink:href="#HiraginoSansGB-W3-20" x="3085.399384"/>
     <use xlink:href="#HiraginoSansGB-W3-45" x="3118.699371"/>
     <use xlink:href="#HiraginoSansGB-W3-64" x="3182.999359"/>
     <use xlink:href="#HiraginoSansGB-W3-67" x="3247.59935"/>
     <use xlink:href="#HiraginoSansGB-W3-65" x="3311.699341"/>
     <use xlink:href="#HiraginoSansGB-W3-20" x="3370.499329"/>
     <use xlink:href="#HiraginoSansGB-W3-43" x="3403.799316"/>
     <use xlink:href="#HiraginoSansGB-W3-61" x="3479.399307"/>
     <use xlink:href="#HiraginoSansGB-W3-73" x="3536.899292"/>
     <use xlink:href="#HiraginoSansGB-W3-65" x="3590.599289"/>
     <use xlink:href="#HiraginoSansGB-W3-73" x="3649.399277"/>
    </g>
   </g>
   <g id="text_3">
    <!-- Layer 4  —  High-Level Perception &amp; Decision -->
    <g style="fill: #ffffff" transform="translate(250.88375 109.582106) scale(0.13 -0.13)">
     <defs>
      <path id="HiraginoSansGB-W3-34" d="M 198 1254 
C 410 1274 602 1280 960 1280 
L 2675 1280 
L 2675 730 
C 2675 442 2662 262 2624 38 
L 3206 38 
C 3168 275 3155 422 3155 730 
L 3155 1280 
L 3392 1280 
C 3667 1280 3827 1267 4064 1235 
L 4064 1766 
C 3834 1734 3667 1722 3398 1722 
L 3155 1722 
L 3155 3821 
C 3155 4326 3162 4525 3194 4902 
L 2714 4902 
C 2566 4678 2451 4518 2234 4250 
L 614 2227 
C 480 2067 333 1888 198 1734 
L 198 1254 
z
M 2682 1715 
L 768 1715 
L 2240 3571 
C 2426 3808 2586 4019 2720 4211 
C 2688 3885 2682 3680 2682 3341 
L 2682 1715 
z
" transform="scale(0.015625)"/>
      <path id="HiraginoSansGB-W3-2014" d="M 0 2579 
L 0 2291 
L 6400 2291 
L 6400 2579 
L 0 2579 
z
" transform="scale(0.015625)"/>
      <path id="HiraginoSansGB-W3-2d" d="M 179 1632 
C 358 1658 506 1664 762 1664 
L 1523 1664 
C 1792 1664 1933 1658 2112 1632 
L 2112 2170 
C 1933 2144 1798 2138 1523 2138 
L 762 2138 
C 493 2138 358 2144 179 2170 
L 179 1632 
z
" transform="scale(0.015625)"/>
      <path id="HiraginoSansGB-W3-76" d="M 70 3488 
C 205 3206 269 3066 390 2784 
L 1280 627 
C 1408 314 1453 198 1491 38 
L 1997 38 
C 2042 237 2061 275 2202 627 
L 3098 2784 
C 3309 3283 3328 3334 3411 3488 
L 2810 3488 
C 2778 3309 2733 3149 2618 2861 
L 1888 973 
C 1830 832 1792 723 1741 563 
C 1702 691 1632 896 1600 979 
L 870 2861 
C 768 3110 704 3322 672 3488 
L 70 3488 
z
" transform="scale(0.015625)"/>
      <path id="HiraginoSansGB-W3-70" d="M 1018 -1306 
C 986 -1069 973 -883 973 -582 
L 973 211 
C 973 384 966 480 947 659 
C 1248 218 1702 -19 2266 -19 
C 3226 -19 3840 678 3840 1766 
C 3840 2880 3238 3552 2253 3552 
C 1683 3552 1235 3315 947 2861 
C 960 2970 966 3040 966 3123 
L 966 3488 
L 454 3488 
C 486 3245 499 3059 499 2752 
L 499 -589 
C 499 -851 486 -1056 454 -1306 
L 1018 -1306 
z
M 2221 397 
C 1888 397 1568 518 1344 736 
C 1114 960 979 1344 979 1760 
C 979 2586 1478 3136 2214 3136 
C 2931 3136 3341 2637 3341 1766 
C 3341 915 2918 397 2221 397 
z
" transform="scale(0.015625)"/>
      <path id="HiraginoSansGB-W3-26" d="M 4966 38 
C 4787 192 4570 397 4358 608 
L 3942 1030 
C 4288 1498 4416 1773 4672 2586 
L 4224 2758 
C 4109 2157 3968 1824 3635 1338 
L 2298 2682 
C 2886 2944 2957 2982 3136 3136 
C 3386 3354 3507 3629 3507 3987 
C 3507 4582 2982 4992 2214 4992 
C 1696 4992 1318 4826 1088 4486 
C 979 4333 922 4154 922 3949 
C 922 3616 1037 3360 1344 3046 
L 1562 2816 
C 1120 2618 941 2502 736 2298 
C 454 2022 314 1683 314 1293 
C 314 922 442 595 678 358 
C 947 83 1357 -58 1882 -58 
C 2227 -58 2547 6 2848 128 
C 3149 256 3322 378 3629 678 
L 3776 525 
C 3898 397 3962 320 4179 38 
L 4966 38 
z
M 1709 3283 
C 1491 3501 1408 3680 1408 3917 
C 1408 4333 1722 4589 2221 4589 
C 2720 4589 3027 4339 3027 3930 
C 3027 3674 2912 3475 2656 3302 
C 2541 3226 2458 3187 1990 2995 
L 1709 3283 
z
M 3322 986 
C 3078 749 2938 653 2714 544 
C 2458 429 2195 371 1920 371 
C 1235 371 800 742 800 1325 
C 800 1606 915 1869 1120 2054 
C 1293 2221 1453 2317 1862 2496 
L 3322 986 
z
" transform="scale(0.015625)"/>
     </defs>
     <use xlink:href="#HiraginoSansGB-W3-4c"/>
     <use xlink:href="#HiraginoSansGB-W3-61" x="60.199997"/>
     <use xlink:href="#HiraginoSansGB-W3-79" x="117.699982"/>
     <use xlink:href="#HiraginoSansGB-W3-65" x="173.099976"/>
     <use xlink:href="#HiraginoSansGB-W3-72" x="231.899963"/>
     <use xlink:href="#HiraginoSansGB-W3-20" x="274.899948"/>
     <use xlink:href="#HiraginoSansGB-W3-34" x="308.199936"/>
     <use xlink:href="#HiraginoSansGB-W3-20" x="374.299927"/>
     <use xlink:href="#HiraginoSansGB-W3-20" x="407.599915"/>
     <use xlink:href="#HiraginoSansGB-W3-2014" x="440.899902"/>
     <use xlink:href="#HiraginoSansGB-W3-20" x="540.899887"/>
     <use xlink:href="#HiraginoSansGB-W3-20" x="574.199875"/>
     <use xlink:href="#HiraginoSansGB-W3-48" x="607.499863"/>
     <use xlink:href="#HiraginoSansGB-W3-69" x="685.29985"/>
     <use xlink:href="#HiraginoSansGB-W3-67" x="709.099838"/>
     <use xlink:href="#HiraginoSansGB-W3-68" x="773.199829"/>
     <use xlink:href="#HiraginoSansGB-W3-2d" x="834.899826"/>
     <use xlink:href="#HiraginoSansGB-W3-4c" x="870.699814"/>
     <use xlink:href="#HiraginoSansGB-W3-65" x="930.899811"/>
     <use xlink:href="#HiraginoSansGB-W3-76" x="989.699799"/>
     <use xlink:href="#HiraginoSansGB-W3-65" x="1044.099792"/>
     <use xlink:href="#HiraginoSansGB-W3-6c" x="1102.89978"/>
     <use xlink:href="#HiraginoSansGB-W3-20" x="1126.099777"/>
     <use xlink:href="#HiraginoSansGB-W3-50" x="1159.399765"/>
     <use xlink:href="#HiraginoSansGB-W3-65" x="1225.599762"/>
     <use xlink:href="#HiraginoSansGB-W3-72" x="1284.39975"/>
     <use xlink:href="#HiraginoSansGB-W3-63" x="1327.399734"/>
     <use xlink:href="#HiraginoSansGB-W3-65" x="1385.199722"/>
     <use xlink:href="#HiraginoSansGB-W3-70" x="1443.99971"/>
     <use xlink:href="#HiraginoSansGB-W3-74" x="1508.699707"/>
     <use xlink:href="#HiraginoSansGB-W3-69" x="1547.899704"/>
     <use xlink:href="#HiraginoSansGB-W3-6f" x="1571.699692"/>
     <use xlink:href="#HiraginoSansGB-W3-6e" x="1634.199677"/>
     <use xlink:href="#HiraginoSansGB-W3-20" x="1695.999664"/>
     <use xlink:href="#HiraginoSansGB-W3-26" x="1729.299652"/>
     <use xlink:href="#HiraginoSansGB-W3-20" x="1808.999634"/>
     <use xlink:href="#HiraginoSansGB-W3-44" x="1842.299622"/>
     <use xlink:href="#HiraginoSansGB-W3-65" x="1918.099609"/>
     <use xlink:href="#HiraginoSansGB-W3-63" x="1976.899597"/>
     <use xlink:href="#HiraginoSansGB-W3-69" x="2034.699585"/>
     <use xlink:href="#HiraginoSansGB-W3-73" x="2058.499573"/>
     <use xlink:href="#HiraginoSansGB-W3-69" x="2112.19957"/>
     <use xlink:href="#HiraginoSansGB-W3-6f" x="2135.999557"/>
     <use xlink:href="#HiraginoSansGB-W3-6e" x="2198.499542"/>
    </g>
   </g>
   <g id="text_4">
    <!-- Vision Foundation Model  +  VLA  |  Object Detection  |  Semantic Understanding  |  Task Reasoning -->
    <g style="fill: #ffffff; opacity: 0.95" transform="translate(148.503125 145.878) scale(0.1 -0.1)">
     <defs>
      <path id="HiraginoSansGB-W3-56" d="M 934 4250 
C 851 4486 787 4698 749 4902 
L 90 4902 
C 166 4768 275 4531 416 4160 
L 1786 634 
C 1920 301 1965 173 1990 38 
L 2611 38 
C 2643 173 2701 352 2810 634 
L 4179 4160 
C 4339 4576 4403 4730 4506 4902 
L 3840 4902 
C 3821 4736 3770 4550 3654 4250 
L 2451 973 
C 2406 838 2368 723 2304 525 
C 2240 717 2176 902 2150 973 
L 934 4250 
z
" transform="scale(0.015625)"/>
      <path id="HiraginoSansGB-W3-46" d="M 1050 2349 
L 2547 2349 
C 2880 2349 3066 2336 3277 2304 
L 3277 2842 
C 3040 2810 2854 2797 2547 2797 
L 1050 2797 
L 1050 4448 
L 2893 4448 
C 3232 4448 3418 4435 3629 4403 
L 3629 4947 
C 3386 4915 3206 4902 2893 4902 
L 1197 4902 
C 890 4902 717 4909 493 4922 
C 531 4672 544 4467 544 4192 
L 544 787 
C 544 454 531 256 493 38 
L 1101 38 
C 1062 269 1050 442 1050 787 
L 1050 2349 
z
" transform="scale(0.015625)"/>
      <path id="HiraginoSansGB-W3-7c" d="M 960 4902 
L 960 -1306 
L 1434 -1306 
L 1434 4902 
L 960 4902 
z
" transform="scale(0.015625)"/>
      <path id="HiraginoSansGB-W3-4f" d="M 2547 4998 
C 1203 4998 333 4006 333 2470 
C 333 928 1190 -58 2541 -58 
C 3891 -58 4755 928 4755 2470 
C 4755 4013 3898 4998 2547 4998 
z
M 2554 397 
C 1530 397 851 1222 851 2477 
C 851 3731 1523 4550 2547 4550 
C 2989 4550 3373 4397 3667 4109 
C 4038 3738 4230 3174 4230 2470 
C 4230 1786 4026 1190 3661 832 
C 3373 544 2995 397 2554 397 
z
" transform="scale(0.015625)"/>
      <path id="HiraginoSansGB-W3-6a" d="M 608 4902 
L 608 4326 
L 1229 4326 
L 1229 4902 
L 608 4902 
z
M 627 3488 
C 659 3264 672 3078 672 2765 
L 672 -339 
C 672 -774 557 -928 230 -928 
C 0 -928 -141 -838 -307 -595 
L -749 -883 
C -461 -1229 -205 -1350 205 -1350 
C 870 -1350 1158 -1056 1158 -378 
L 1158 2765 
C 1158 3085 1171 3264 1203 3488 
L 627 3488 
z
" transform="scale(0.015625)"/>
      <path id="HiraginoSansGB-W3-53" d="M 3840 3718 
C 3770 4045 3706 4205 3558 4397 
C 3270 4781 2778 4986 2144 4986 
C 1152 4986 506 4467 506 3661 
C 506 3213 704 2874 1101 2650 
C 1318 2528 1568 2438 1971 2355 
C 2746 2182 2816 2163 3027 2042 
C 3270 1907 3398 1670 3398 1357 
C 3398 762 2938 403 2176 403 
C 1702 403 1318 563 1107 845 
C 973 1018 928 1171 909 1478 
L 352 1408 
C 416 986 486 787 653 563 
C 947 166 1478 -45 2195 -45 
C 3296 -45 3917 467 3917 1370 
C 3917 2112 3507 2502 2483 2720 
C 1747 2880 1741 2880 1568 2950 
C 1190 3104 1011 3341 1011 3674 
C 1011 4192 1472 4544 2131 4544 
C 2547 4544 2874 4416 3078 4173 
C 3200 4026 3251 3898 3302 3642 
L 3840 3718 
z
" transform="scale(0.015625)"/>
      <path id="HiraginoSansGB-W3-55" d="M 3866 4902 
C 3904 4678 3917 4486 3917 4166 
L 3917 1824 
C 3917 1414 3802 1056 3597 806 
C 3360 531 2970 378 2477 378 
C 1562 378 1037 902 1037 1824 
L 1037 4166 
C 1037 4506 1050 4698 1088 4902 
L 486 4902 
C 525 4678 538 4493 538 4166 
L 538 1805 
C 538 1242 698 781 1011 454 
C 1331 115 1843 -64 2470 -64 
C 3091 -64 3603 115 3923 442 
C 4243 774 4416 1242 4416 1805 
L 4416 4179 
C 4416 4499 4429 4678 4467 4902 
L 3866 4902 
z
" transform="scale(0.015625)"/>
      <path id="HiraginoSansGB-W3-54" d="M 2323 4454 
L 3315 4454 
C 3674 4454 3859 4442 4070 4410 
L 4070 4947 
C 3859 4915 3686 4902 3315 4902 
L 819 4902 
C 480 4902 314 4915 90 4947 
L 90 4410 
C 301 4442 499 4454 826 4454 
L 1824 4454 
L 1824 762 
C 1824 461 1811 237 1773 38 
L 2374 38 
C 2336 269 2323 448 2323 762 
L 2323 4454 
z
" transform="scale(0.015625)"/>
     </defs>
     <use xlink:href="#HiraginoSansGB-W3-56"/>
     <use xlink:href="#HiraginoSansGB-W3-69" x="71.699982"/>
     <use xlink:href="#HiraginoSansGB-W3-73" x="95.499969"/>
     <use xlink:href="#HiraginoSansGB-W3-69" x="149.199966"/>
     <use xlink:href="#HiraginoSansGB-W3-6f" x="172.999954"/>
     <use xlink:href="#HiraginoSansGB-W3-6e" x="235.499939"/>
     <use xlink:href="#HiraginoSansGB-W3-20" x="297.299927"/>
     <use xlink:href="#HiraginoSansGB-W3-46" x="330.599915"/>
     <use xlink:href="#HiraginoSansGB-W3-6f" x="390.799911"/>
     <use xlink:href="#HiraginoSansGB-W3-75" x="453.299896"/>
     <use xlink:href="#HiraginoSansGB-W3-6e" x="515.099884"/>
     <use xlink:href="#HiraginoSansGB-W3-64" x="576.899872"/>
     <use xlink:href="#HiraginoSansGB-W3-61" x="641.499863"/>
     <use xlink:href="#HiraginoSansGB-W3-74" x="698.999847"/>
     <use xlink:href="#HiraginoSansGB-W3-69" x="738.199844"/>
     <use xlink:href="#HiraginoSansGB-W3-6f" x="761.999832"/>
     <use xlink:href="#HiraginoSansGB-W3-6e" x="824.499817"/>
     <use xlink:href="#HiraginoSansGB-W3-20" x="886.299805"/>
     <use xlink:href="#HiraginoSansGB-W3-4d" x="919.599792"/>
     <use xlink:href="#HiraginoSansGB-W3-6f" x="1014.099777"/>
     <use xlink:href="#HiraginoSansGB-W3-64" x="1076.599762"/>
     <use xlink:href="#HiraginoSansGB-W3-65" x="1141.199753"/>
     <use xlink:href="#HiraginoSansGB-W3-6c" x="1199.999741"/>
     <use xlink:href="#HiraginoSansGB-W3-20" x="1223.199738"/>
     <use xlink:href="#HiraginoSansGB-W3-20" x="1256.499725"/>
     <use xlink:href="#HiraginoSansGB-W3-2b" x="1289.799713"/>
     <use xlink:href="#HiraginoSansGB-W3-20" x="1355.399704"/>
     <use xlink:href="#HiraginoSansGB-W3-20" x="1388.699692"/>
     <use xlink:href="#HiraginoSansGB-W3-56" x="1421.99968"/>
     <use xlink:href="#HiraginoSansGB-W3-4c" x="1493.699661"/>
     <use xlink:href="#HiraginoSansGB-W3-41" x="1553.899658"/>
     <use xlink:href="#HiraginoSansGB-W3-20" x="1628.899643"/>
     <use xlink:href="#HiraginoSansGB-W3-20" x="1662.199631"/>
     <use xlink:href="#HiraginoSansGB-W3-7c" x="1695.499619"/>
     <use xlink:href="#HiraginoSansGB-W3-20" x="1732.999603"/>
     <use xlink:href="#HiraginoSansGB-W3-20" x="1766.299591"/>
     <use xlink:href="#HiraginoSansGB-W3-4f" x="1799.599579"/>
     <use xlink:href="#HiraginoSansGB-W3-62" x="1879.099564"/>
     <use xlink:href="#HiraginoSansGB-W3-6a" x="1943.699554"/>
     <use xlink:href="#HiraginoSansGB-W3-65" x="1970.199539"/>
     <use xlink:href="#HiraginoSansGB-W3-63" x="2028.999527"/>
     <use xlink:href="#HiraginoSansGB-W3-74" x="2086.799515"/>
     <use xlink:href="#HiraginoSansGB-W3-20" x="2125.999512"/>
     <use xlink:href="#HiraginoSansGB-W3-44" x="2159.2995"/>
     <use xlink:href="#HiraginoSansGB-W3-65" x="2235.099487"/>
     <use xlink:href="#HiraginoSansGB-W3-74" x="2293.899475"/>
     <use xlink:href="#HiraginoSansGB-W3-65" x="2333.099472"/>
     <use xlink:href="#HiraginoSansGB-W3-63" x="2391.89946"/>
     <use xlink:href="#HiraginoSansGB-W3-74" x="2449.699448"/>
     <use xlink:href="#HiraginoSansGB-W3-69" x="2488.899445"/>
     <use xlink:href="#HiraginoSansGB-W3-6f" x="2512.699432"/>
     <use xlink:href="#HiraginoSansGB-W3-6e" x="2575.199417"/>
     <use xlink:href="#HiraginoSansGB-W3-20" x="2636.999405"/>
     <use xlink:href="#HiraginoSansGB-W3-20" x="2670.299393"/>
     <use xlink:href="#HiraginoSansGB-W3-7c" x="2703.59938"/>
     <use xlink:href="#HiraginoSansGB-W3-20" x="2741.099365"/>
     <use xlink:href="#HiraginoSansGB-W3-20" x="2774.399353"/>
     <use xlink:href="#HiraginoSansGB-W3-53" x="2807.699341"/>
     <use xlink:href="#HiraginoSansGB-W3-65" x="2874.599335"/>
     <use xlink:href="#HiraginoSansGB-W3-6d" x="2933.399323"/>
     <use xlink:href="#HiraginoSansGB-W3-61" x="3026.499313"/>
     <use xlink:href="#HiraginoSansGB-W3-6e" x="3083.999298"/>
     <use xlink:href="#HiraginoSansGB-W3-74" x="3145.799286"/>
     <use xlink:href="#HiraginoSansGB-W3-69" x="3184.999283"/>
     <use xlink:href="#HiraginoSansGB-W3-63" x="3208.799271"/>
     <use xlink:href="#HiraginoSansGB-W3-20" x="3266.599258"/>
     <use xlink:href="#HiraginoSansGB-W3-55" x="3299.899246"/>
     <use xlink:href="#HiraginoSansGB-W3-6e" x="3377.199234"/>
     <use xlink:href="#HiraginoSansGB-W3-64" x="3438.999222"/>
     <use xlink:href="#HiraginoSansGB-W3-65" x="3503.599213"/>
     <use xlink:href="#HiraginoSansGB-W3-72" x="3562.3992"/>
     <use xlink:href="#HiraginoSansGB-W3-73" x="3605.399185"/>
     <use xlink:href="#HiraginoSansGB-W3-74" x="3659.099182"/>
     <use xlink:href="#HiraginoSansGB-W3-61" x="3698.299179"/>
     <use xlink:href="#HiraginoSansGB-W3-6e" x="3755.799164"/>
     <use xlink:href="#HiraginoSansGB-W3-64" x="3817.599152"/>
     <use xlink:href="#HiraginoSansGB-W3-69" x="3882.199142"/>
     <use xlink:href="#HiraginoSansGB-W3-6e" x="3905.99913"/>
     <use xlink:href="#HiraginoSansGB-W3-67" x="3967.799118"/>
     <use xlink:href="#HiraginoSansGB-W3-20" x="4031.899109"/>
     <use xlink:href="#HiraginoSansGB-W3-20" x="4065.199097"/>
     <use xlink:href="#HiraginoSansGB-W3-7c" x="4098.499084"/>
     <use xlink:href="#HiraginoSansGB-W3-20" x="4135.999069"/>
     <use xlink:href="#HiraginoSansGB-W3-20" x="4169.299057"/>
     <use xlink:href="#HiraginoSansGB-W3-54" x="4202.599045"/>
     <use xlink:href="#HiraginoSansGB-W3-61" x="4267.499039"/>
     <use xlink:href="#HiraginoSansGB-W3-73" x="4324.999023"/>
     <use xlink:href="#HiraginoSansGB-W3-6b" x="4378.69902"/>
     <use xlink:href="#HiraginoSansGB-W3-20" x="4436.199005"/>
     <use xlink:href="#HiraginoSansGB-W3-52" x="4469.498993"/>
     <use xlink:href="#HiraginoSansGB-W3-65" x="4542.098984"/>
     <use xlink:href="#HiraginoSansGB-W3-61" x="4600.898972"/>
     <use xlink:href="#HiraginoSansGB-W3-73" x="4658.398956"/>
     <use xlink:href="#HiraginoSansGB-W3-6f" x="4712.098953"/>
     <use xlink:href="#HiraginoSansGB-W3-6e" x="4774.598938"/>
     <use xlink:href="#HiraginoSansGB-W3-69" x="4836.398926"/>
     <use xlink:href="#HiraginoSansGB-W3-6e" x="4860.198914"/>
     <use xlink:href="#HiraginoSansGB-W3-67" x="4921.998901"/>
    </g>
   </g>
   <g id="text_5">
    <!-- Layer 3  —  Manipulation Execution -->
    <g style="fill: #ffffff" transform="translate(283.655937 209.387309) scale(0.13 -0.13)">
     <defs>
      <path id="HiraginoSansGB-W3-33" d="M 288 1088 
C 403 762 480 621 614 467 
C 922 122 1402 -58 2048 -58 
C 3117 -58 3782 480 3782 1344 
C 3782 1754 3635 2093 3354 2310 
C 3136 2477 2938 2547 2566 2586 
C 2861 2643 3002 2694 3168 2816 
C 3450 3014 3616 3360 3616 3750 
C 3616 4518 3027 5005 2099 5005 
C 1542 5005 1107 4845 826 4538 
C 666 4371 589 4224 480 3898 
L 1011 3782 
C 1082 4019 1126 4122 1216 4237 
C 1395 4467 1677 4576 2067 4576 
C 2714 4576 3098 4256 3098 3706 
C 3098 3475 3002 3238 2842 3085 
C 2643 2886 2330 2790 1907 2790 
C 1734 2790 1581 2803 1434 2829 
L 1434 2323 
C 1606 2342 1766 2355 1946 2355 
C 2797 2355 3251 2010 3251 1376 
C 3251 768 2784 384 2042 384 
C 1715 384 1434 461 1216 614 
C 1018 755 928 890 826 1222 
L 288 1088 
z
" transform="scale(0.015625)"/>
      <path id="HiraginoSansGB-W3-78" d="M 3315 38 
C 2918 563 2918 563 2854 646 
L 2010 1824 
L 2816 2957 
C 2925 3110 3059 3283 3206 3488 
L 2592 3488 
C 2534 3360 2451 3219 2342 3059 
L 1722 2157 
L 1094 3059 
C 973 3232 909 3341 845 3488 
L 218 3488 
C 512 3098 563 3034 602 2976 
L 1427 1824 
L 538 595 
C 397 390 224 166 122 38 
L 755 38 
C 851 218 902 314 1005 454 
L 1715 1491 
L 2394 512 
C 2528 307 2592 205 2682 38 
L 3315 38 
z
" transform="scale(0.015625)"/>
     </defs>
     <use xlink:href="#HiraginoSansGB-W3-4c"/>
     <use xlink:href="#HiraginoSansGB-W3-61" x="60.199997"/>
     <use xlink:href="#HiraginoSansGB-W3-79" x="117.699982"/>
     <use xlink:href="#HiraginoSansGB-W3-65" x="173.099976"/>
     <use xlink:href="#HiraginoSansGB-W3-72" x="231.899963"/>
     <use xlink:href="#HiraginoSansGB-W3-20" x="274.899948"/>
     <use xlink:href="#HiraginoSansGB-W3-33" x="308.199936"/>
     <use xlink:href="#HiraginoSansGB-W3-20" x="373.899933"/>
     <use xlink:href="#HiraginoSansGB-W3-20" x="407.199921"/>
     <use xlink:href="#HiraginoSansGB-W3-2014" x="440.499908"/>
     <use xlink:href="#HiraginoSansGB-W3-20" x="540.499893"/>
     <use xlink:href="#HiraginoSansGB-W3-20" x="573.799881"/>
     <use xlink:href="#HiraginoSansGB-W3-4d" x="607.099869"/>
     <use xlink:href="#HiraginoSansGB-W3-61" x="701.599854"/>
     <use xlink:href="#HiraginoSansGB-W3-6e" x="759.099838"/>
     <use xlink:href="#HiraginoSansGB-W3-69" x="820.899826"/>
     <use xlink:href="#HiraginoSansGB-W3-70" x="844.699814"/>
     <use xlink:href="#HiraginoSansGB-W3-75" x="909.399811"/>
     <use xlink:href="#HiraginoSansGB-W3-6c" x="971.199799"/>
     <use xlink:href="#HiraginoSansGB-W3-61" x="994.399796"/>
     <use xlink:href="#HiraginoSansGB-W3-74" x="1051.89978"/>
     <use xlink:href="#HiraginoSansGB-W3-69" x="1091.099777"/>
     <use xlink:href="#HiraginoSansGB-W3-6f" x="1114.899765"/>
     <use xlink:href="#HiraginoSansGB-W3-6e" x="1177.39975"/>
     <use xlink:href="#HiraginoSansGB-W3-20" x="1239.199738"/>
     <use xlink:href="#HiraginoSansGB-W3-45" x="1272.499725"/>
     <use xlink:href="#HiraginoSansGB-W3-78" x="1336.799713"/>
     <use xlink:href="#HiraginoSansGB-W3-65" x="1390.399704"/>
     <use xlink:href="#HiraginoSansGB-W3-63" x="1449.199692"/>
     <use xlink:href="#HiraginoSansGB-W3-75" x="1506.99968"/>
     <use xlink:href="#HiraginoSansGB-W3-74" x="1568.799667"/>
     <use xlink:href="#HiraginoSansGB-W3-69" x="1607.999664"/>
     <use xlink:href="#HiraginoSansGB-W3-6f" x="1631.799652"/>
     <use xlink:href="#HiraginoSansGB-W3-6e" x="1694.299637"/>
    </g>
   </g>
   <g id="text_6">
    <!-- Diffusion Transformer (LBM)  |  Flow Matching Loss  |  30Hz Control  |  Language-Conditioned Behavior -->
    <g style="fill: #ffffff; opacity: 0.95" transform="translate(139.190625 245.684844) scale(0.1 -0.1)">
     <defs>
      <path id="HiraginoSansGB-W3-66" d="M 915 3078 
L 915 762 
C 915 493 902 275 870 38 
L 1446 38 
C 1414 275 1402 454 1402 755 
L 1402 3078 
L 1722 3078 
C 2035 3078 2182 3072 2400 3040 
L 2400 3526 
C 2163 3494 1997 3488 1722 3488 
L 1402 3488 
L 1402 3840 
C 1402 4141 1427 4275 1498 4378 
C 1581 4493 1728 4550 1933 4550 
C 2131 4550 2291 4506 2464 4403 
L 2598 4832 
C 2368 4922 2170 4960 1920 4960 
C 1562 4960 1267 4845 1114 4646 
C 966 4461 915 4256 915 3866 
L 915 3488 
L 653 3488 
C 397 3488 243 3501 70 3526 
L 70 3040 
C 269 3066 429 3078 653 3078 
L 915 3078 
z
" transform="scale(0.015625)"/>
      <path id="HiraginoSansGB-W3-28" d="M 2093 -762 
C 1734 -211 1594 77 1453 531 
C 1306 992 1235 1478 1235 1984 
C 1235 2490 1306 2970 1453 3430 
C 1594 3885 1734 4173 2093 4723 
L 1690 4979 
C 1318 4410 1165 4102 1011 3648 
C 838 3130 749 2579 749 1984 
C 749 1389 838 838 1011 320 
C 1165 -141 1318 -448 1690 -1018 
L 2093 -762 
z
" transform="scale(0.015625)"/>
      <path id="HiraginoSansGB-W3-29" d="M 179 4723 
C 538 4173 678 3885 819 3430 
C 966 2970 1037 2496 1037 1984 
C 1037 1472 966 992 819 531 
C 678 77 538 -211 179 -762 
L 582 -1018 
C 954 -448 1107 -141 1261 320 
C 1440 838 1523 1382 1523 1984 
C 1523 2579 1440 3130 1261 3648 
C 1107 4102 954 4410 582 4979 
L 179 4723 
z
" transform="scale(0.015625)"/>
      <path id="HiraginoSansGB-W3-30" d="M 2099 -58 
C 2688 -58 3136 166 3456 614 
C 3738 1005 3904 1690 3904 2464 
C 3904 2995 3821 3507 3661 3949 
C 3584 4160 3456 4358 3277 4538 
C 2989 4838 2579 4992 2106 4992 
C 1472 4992 979 4723 672 4205 
C 448 3834 301 3142 301 2464 
C 301 1939 384 1434 544 986 
C 621 768 755 570 928 397 
C 1229 96 1626 -58 2099 -58 
z
M 2099 4550 
C 2547 4550 2893 4352 3104 3968 
C 3270 3667 3392 3034 3392 2477 
C 3392 2003 3328 1581 3194 1184 
C 3136 998 3034 832 2893 685 
C 2701 486 2426 384 2106 384 
C 1670 384 1338 570 1114 941 
C 941 1242 813 1869 813 2464 
C 813 2931 877 3366 1011 3757 
C 1062 3917 1165 4077 1299 4224 
C 1504 4442 1766 4550 2099 4550 
z
" transform="scale(0.015625)"/>
      <path id="HiraginoSansGB-W3-7a" d="M 2861 3507 
C 2682 3488 2579 3488 2182 3488 
L 1043 3488 
C 762 3488 576 3501 326 3533 
L 326 3014 
C 570 3046 774 3059 1043 3059 
L 1914 3059 
C 2003 3059 2061 3059 2234 3072 
C 2157 2989 2112 2938 2042 2842 
L 634 960 
C 467 736 339 589 198 442 
L 198 19 
C 378 32 512 38 909 38 
L 2266 38 
C 2592 38 2758 26 2989 -6 
L 2989 518 
C 2778 486 2598 474 2266 474 
L 1254 474 
C 1146 474 1126 474 813 461 
C 947 627 1043 749 1056 762 
L 2432 2598 
C 2592 2816 2701 2950 2861 3123 
L 2861 3507 
z
" transform="scale(0.015625)"/>
     </defs>
     <use xlink:href="#HiraginoSansGB-W3-44"/>
     <use xlink:href="#HiraginoSansGB-W3-69" x="75.799988"/>
     <use xlink:href="#HiraginoSansGB-W3-66" x="99.599976"/>
     <use xlink:href="#HiraginoSansGB-W3-66" x="141.299973"/>
     <use xlink:href="#HiraginoSansGB-W3-75" x="182.999969"/>
     <use xlink:href="#HiraginoSansGB-W3-73" x="244.799957"/>
     <use xlink:href="#HiraginoSansGB-W3-69" x="298.499954"/>
     <use xlink:href="#HiraginoSansGB-W3-6f" x="322.299942"/>
     <use xlink:href="#HiraginoSansGB-W3-6e" x="384.799927"/>
     <use xlink:href="#HiraginoSansGB-W3-20" x="446.599915"/>
     <use xlink:href="#HiraginoSansGB-W3-54" x="479.899902"/>
     <use xlink:href="#HiraginoSansGB-W3-72" x="544.799896"/>
     <use xlink:href="#HiraginoSansGB-W3-61" x="587.799881"/>
     <use xlink:href="#HiraginoSansGB-W3-6e" x="645.299866"/>
     <use xlink:href="#HiraginoSansGB-W3-73" x="707.099854"/>
     <use xlink:href="#HiraginoSansGB-W3-66" x="760.79985"/>
     <use xlink:href="#HiraginoSansGB-W3-6f" x="802.499847"/>
     <use xlink:href="#HiraginoSansGB-W3-72" x="864.999832"/>
     <use xlink:href="#HiraginoSansGB-W3-6d" x="907.999817"/>
     <use xlink:href="#HiraginoSansGB-W3-65" x="1001.099808"/>
     <use xlink:href="#HiraginoSansGB-W3-72" x="1059.899796"/>
     <use xlink:href="#HiraginoSansGB-W3-20" x="1102.89978"/>
     <use xlink:href="#HiraginoSansGB-W3-28" x="1136.199768"/>
     <use xlink:href="#HiraginoSansGB-W3-4c" x="1171.799759"/>
     <use xlink:href="#HiraginoSansGB-W3-42" x="1231.999756"/>
     <use xlink:href="#HiraginoSansGB-W3-4d" x="1303.199738"/>
     <use xlink:href="#HiraginoSansGB-W3-29" x="1397.699722"/>
     <use xlink:href="#HiraginoSansGB-W3-20" x="1433.299713"/>
     <use xlink:href="#HiraginoSansGB-W3-20" x="1466.599701"/>
     <use xlink:href="#HiraginoSansGB-W3-7c" x="1499.899689"/>
     <use xlink:href="#HiraginoSansGB-W3-20" x="1537.399673"/>
     <use xlink:href="#HiraginoSansGB-W3-20" x="1570.699661"/>
     <use xlink:href="#HiraginoSansGB-W3-46" x="1603.999649"/>
     <use xlink:href="#HiraginoSansGB-W3-6c" x="1664.199646"/>
     <use xlink:href="#HiraginoSansGB-W3-6f" x="1687.399643"/>
     <use xlink:href="#HiraginoSansGB-W3-77" x="1749.899628"/>
     <use xlink:href="#HiraginoSansGB-W3-20" x="1826.899612"/>
     <use xlink:href="#HiraginoSansGB-W3-4d" x="1860.1996"/>
     <use xlink:href="#HiraginoSansGB-W3-61" x="1954.699585"/>
     <use xlink:href="#HiraginoSansGB-W3-74" x="2012.19957"/>
     <use xlink:href="#HiraginoSansGB-W3-63" x="2051.399567"/>
     <use xlink:href="#HiraginoSansGB-W3-68" x="2109.199554"/>
     <use xlink:href="#HiraginoSansGB-W3-69" x="2170.899551"/>
     <use xlink:href="#HiraginoSansGB-W3-6e" x="2194.699539"/>
     <use xlink:href="#HiraginoSansGB-W3-67" x="2256.499527"/>
     <use xlink:href="#HiraginoSansGB-W3-20" x="2320.599518"/>
     <use xlink:href="#HiraginoSansGB-W3-4c" x="2353.899506"/>
     <use xlink:href="#HiraginoSansGB-W3-6f" x="2414.099503"/>
     <use xlink:href="#HiraginoSansGB-W3-73" x="2476.599487"/>
     <use xlink:href="#HiraginoSansGB-W3-73" x="2530.299484"/>
     <use xlink:href="#HiraginoSansGB-W3-20" x="2583.999481"/>
     <use xlink:href="#HiraginoSansGB-W3-20" x="2617.299469"/>
     <use xlink:href="#HiraginoSansGB-W3-7c" x="2650.599457"/>
     <use xlink:href="#HiraginoSansGB-W3-20" x="2688.099442"/>
     <use xlink:href="#HiraginoSansGB-W3-20" x="2721.399429"/>
     <use xlink:href="#HiraginoSansGB-W3-33" x="2754.699417"/>
     <use xlink:href="#HiraginoSansGB-W3-30" x="2820.399414"/>
     <use xlink:href="#HiraginoSansGB-W3-48" x="2886.099411"/>
     <use xlink:href="#HiraginoSansGB-W3-7a" x="2963.899399"/>
     <use xlink:href="#HiraginoSansGB-W3-20" x="3013.699387"/>
     <use xlink:href="#HiraginoSansGB-W3-43" x="3046.999374"/>
     <use xlink:href="#HiraginoSansGB-W3-6f" x="3122.599365"/>
     <use xlink:href="#HiraginoSansGB-W3-6e" x="3185.09935"/>
     <use xlink:href="#HiraginoSansGB-W3-74" x="3246.899338"/>
     <use xlink:href="#HiraginoSansGB-W3-72" x="3286.099335"/>
     <use xlink:href="#HiraginoSansGB-W3-6f" x="3329.099319"/>
     <use xlink:href="#HiraginoSansGB-W3-6c" x="3391.599304"/>
     <use xlink:href="#HiraginoSansGB-W3-20" x="3414.799301"/>
     <use xlink:href="#HiraginoSansGB-W3-20" x="3448.099289"/>
     <use xlink:href="#HiraginoSansGB-W3-7c" x="3481.399277"/>
     <use xlink:href="#HiraginoSansGB-W3-20" x="3518.899261"/>
     <use xlink:href="#HiraginoSansGB-W3-20" x="3552.199249"/>
     <use xlink:href="#HiraginoSansGB-W3-4c" x="3585.499237"/>
     <use xlink:href="#HiraginoSansGB-W3-61" x="3645.699234"/>
     <use xlink:href="#HiraginoSansGB-W3-6e" x="3703.199219"/>
     <use xlink:href="#HiraginoSansGB-W3-67" x="3764.999207"/>
     <use xlink:href="#HiraginoSansGB-W3-75" x="3829.099197"/>
     <use xlink:href="#HiraginoSansGB-W3-61" x="3890.899185"/>
     <use xlink:href="#HiraginoSansGB-W3-67" x="3948.39917"/>
     <use xlink:href="#HiraginoSansGB-W3-65" x="4012.499161"/>
     <use xlink:href="#HiraginoSansGB-W3-2d" x="4071.299149"/>
     <use xlink:href="#HiraginoSansGB-W3-43" x="4107.099136"/>
     <use xlink:href="#HiraginoSansGB-W3-6f" x="4182.699127"/>
     <use xlink:href="#HiraginoSansGB-W3-6e" x="4245.199112"/>
     <use xlink:href="#HiraginoSansGB-W3-64" x="4306.9991"/>
     <use xlink:href="#HiraginoSansGB-W3-69" x="4371.599091"/>
     <use xlink:href="#HiraginoSansGB-W3-74" x="4395.399078"/>
     <use xlink:href="#HiraginoSansGB-W3-69" x="4434.599075"/>
     <use xlink:href="#HiraginoSansGB-W3-6f" x="4458.399063"/>
     <use xlink:href="#HiraginoSansGB-W3-6e" x="4520.899048"/>
     <use xlink:href="#HiraginoSansGB-W3-65" x="4582.699036"/>
     <use xlink:href="#HiraginoSansGB-W3-64" x="4641.499023"/>
     <use xlink:href="#HiraginoSansGB-W3-20" x="4706.099014"/>
     <use xlink:href="#HiraginoSansGB-W3-42" x="4739.399002"/>
     <use xlink:href="#HiraginoSansGB-W3-65" x="4810.598984"/>
     <use xlink:href="#HiraginoSansGB-W3-68" x="4869.398972"/>
     <use xlink:href="#HiraginoSansGB-W3-61" x="4931.098969"/>
     <use xlink:href="#HiraginoSansGB-W3-76" x="4988.598953"/>
     <use xlink:href="#HiraginoSansGB-W3-69" x="5042.998947"/>
     <use xlink:href="#HiraginoSansGB-W3-6f" x="5066.798935"/>
     <use xlink:href="#HiraginoSansGB-W3-72" x="5129.29892"/>
    </g>
   </g>
   <g id="text_7">
    <!-- Layer 2  —  Motion Planning -->
    <g style="fill: #ffffff" transform="translate(306.483125 309.1722) scale(0.13 -0.13)">
     <defs>
      <path id="HiraginoSansGB-W3-32" d="M 3027 38 
C 3347 38 3558 26 3814 0 
L 3814 538 
C 3571 506 3354 493 3034 493 
L 992 493 
C 1069 800 1158 973 1357 1235 
C 1568 1504 1773 1683 2278 2022 
C 3008 2509 3174 2630 3366 2848 
C 3616 3123 3744 3430 3744 3757 
C 3744 4512 3123 4998 2157 4998 
C 1594 4998 1158 4832 870 4506 
C 659 4269 563 4045 467 3584 
L 1005 3494 
C 1050 3814 1107 3968 1229 4141 
C 1421 4416 1734 4557 2157 4557 
C 2810 4557 3219 4243 3219 3757 
C 3219 3366 3008 3085 2374 2656 
C 1632 2150 1619 2144 1395 1952 
C 992 1606 723 1254 563 851 
C 467 608 448 512 378 6 
C 582 32 678 38 1082 38 
L 3027 38 
z
" transform="scale(0.015625)"/>
     </defs>
     <use xlink:href="#HiraginoSansGB-W3-4c"/>
     <use xlink:href="#HiraginoSansGB-W3-61" x="60.199997"/>
     <use xlink:href="#HiraginoSansGB-W3-79" x="117.699982"/>
     <use xlink:href="#HiraginoSansGB-W3-65" x="173.099976"/>
     <use xlink:href="#HiraginoSansGB-W3-72" x="231.899963"/>
     <use xlink:href="#HiraginoSansGB-W3-20" x="274.899948"/>
     <use xlink:href="#HiraginoSansGB-W3-32" x="308.199936"/>
     <use xlink:href="#HiraginoSansGB-W3-20" x="373.899933"/>
     <use xlink:href="#HiraginoSansGB-W3-20" x="407.199921"/>
     <use xlink:href="#HiraginoSansGB-W3-2014" x="440.499908"/>
     <use xlink:href="#HiraginoSansGB-W3-20" x="540.499893"/>
     <use xlink:href="#HiraginoSansGB-W3-20" x="573.799881"/>
     <use xlink:href="#HiraginoSansGB-W3-4d" x="607.099869"/>
     <use xlink:href="#HiraginoSansGB-W3-6f" x="701.599854"/>
     <use xlink:href="#HiraginoSansGB-W3-74" x="764.099838"/>
     <use xlink:href="#HiraginoSansGB-W3-69" x="803.299835"/>
     <use xlink:href="#HiraginoSansGB-W3-6f" x="827.099823"/>
     <use xlink:href="#HiraginoSansGB-W3-6e" x="889.599808"/>
     <use xlink:href="#HiraginoSansGB-W3-20" x="951.399796"/>
     <use xlink:href="#HiraginoSansGB-W3-50" x="984.699783"/>
     <use xlink:href="#HiraginoSansGB-W3-6c" x="1050.89978"/>
     <use xlink:href="#HiraginoSansGB-W3-61" x="1074.099777"/>
     <use xlink:href="#HiraginoSansGB-W3-6e" x="1131.599762"/>
     <use xlink:href="#HiraginoSansGB-W3-6e" x="1193.39975"/>
     <use xlink:href="#HiraginoSansGB-W3-69" x="1255.199738"/>
     <use xlink:href="#HiraginoSansGB-W3-6e" x="1278.999725"/>
     <use xlink:href="#HiraginoSansGB-W3-67" x="1340.799713"/>
    </g>
   </g>
   <g id="text_8">
    <!-- Optimization + Learning  |  Whole-Body Coordination  |  Self-Collision Avoidance  |  Obstacle Avoidance -->
    <g style="fill: #ffffff; opacity: 0.95" transform="translate(141.207031 345.462) scale(0.1 -0.1)">
     <defs>
      <path id="HiraginoSansGB-W3-57" d="M 4922 38 
C 4947 179 4947 186 5088 672 
L 6106 4173 
C 6208 4531 6259 4685 6355 4902 
L 5715 4902 
C 5702 4717 5658 4486 5594 4237 
L 4838 1472 
L 4666 736 
C 4538 1235 4512 1331 4474 1472 
L 3616 4275 
C 3539 4518 3494 4710 3462 4902 
L 2982 4902 
C 2963 4755 2906 4506 2835 4275 
L 1978 1466 
C 1926 1293 1850 992 1786 736 
C 1696 1126 1658 1306 1613 1459 
L 858 4237 
C 787 4499 749 4710 736 4902 
L 90 4902 
C 192 4691 250 4525 352 4173 
L 1363 672 
C 1517 154 1517 154 1536 38 
L 2029 38 
C 2061 198 2086 307 2195 653 
L 3034 3418 
C 3072 3546 3155 3878 3200 4045 
C 3200 4070 3213 4109 3226 4154 
C 3270 3910 3328 3693 3411 3418 
L 4256 653 
C 4339 397 4397 166 4422 38 
L 4922 38 
z
" transform="scale(0.015625)"/>
     </defs>
     <use xlink:href="#HiraginoSansGB-W3-4f"/>
     <use xlink:href="#HiraginoSansGB-W3-70" x="79.499985"/>
     <use xlink:href="#HiraginoSansGB-W3-74" x="144.199982"/>
     <use xlink:href="#HiraginoSansGB-W3-69" x="183.399979"/>
     <use xlink:href="#HiraginoSansGB-W3-6d" x="207.199966"/>
     <use xlink:href="#HiraginoSansGB-W3-69" x="300.299957"/>
     <use xlink:href="#HiraginoSansGB-W3-7a" x="324.099945"/>
     <use xlink:href="#HiraginoSansGB-W3-61" x="373.899933"/>
     <use xlink:href="#HiraginoSansGB-W3-74" x="431.399918"/>
     <use xlink:href="#HiraginoSansGB-W3-69" x="470.599915"/>
     <use xlink:href="#HiraginoSansGB-W3-6f" x="494.399902"/>
     <use xlink:href="#HiraginoSansGB-W3-6e" x="556.899887"/>
     <use xlink:href="#HiraginoSansGB-W3-20" x="618.699875"/>
     <use xlink:href="#HiraginoSansGB-W3-2b" x="651.999863"/>
     <use xlink:href="#HiraginoSansGB-W3-20" x="717.599854"/>
     <use xlink:href="#HiraginoSansGB-W3-4c" x="750.899841"/>
     <use xlink:href="#HiraginoSansGB-W3-65" x="811.099838"/>
     <use xlink:href="#HiraginoSansGB-W3-61" x="869.899826"/>
     <use xlink:href="#HiraginoSansGB-W3-72" x="927.399811"/>
     <use xlink:href="#HiraginoSansGB-W3-6e" x="970.399796"/>
     <use xlink:href="#HiraginoSansGB-W3-69" x="1032.199783"/>
     <use xlink:href="#HiraginoSansGB-W3-6e" x="1055.999771"/>
     <use xlink:href="#HiraginoSansGB-W3-67" x="1117.799759"/>
     <use xlink:href="#HiraginoSansGB-W3-20" x="1181.89975"/>
     <use xlink:href="#HiraginoSansGB-W3-20" x="1215.199738"/>
     <use xlink:href="#HiraginoSansGB-W3-7c" x="1248.499725"/>
     <use xlink:href="#HiraginoSansGB-W3-20" x="1285.99971"/>
     <use xlink:href="#HiraginoSansGB-W3-20" x="1319.299698"/>
     <use xlink:href="#HiraginoSansGB-W3-57" x="1352.599686"/>
     <use xlink:href="#HiraginoSansGB-W3-68" x="1453.199677"/>
     <use xlink:href="#HiraginoSansGB-W3-6f" x="1514.899673"/>
     <use xlink:href="#HiraginoSansGB-W3-6c" x="1577.399658"/>
     <use xlink:href="#HiraginoSansGB-W3-65" x="1600.599655"/>
     <use xlink:href="#HiraginoSansGB-W3-2d" x="1659.399643"/>
     <use xlink:href="#HiraginoSansGB-W3-42" x="1695.199631"/>
     <use xlink:href="#HiraginoSansGB-W3-6f" x="1766.399612"/>
     <use xlink:href="#HiraginoSansGB-W3-64" x="1828.899597"/>
     <use xlink:href="#HiraginoSansGB-W3-79" x="1893.499588"/>
     <use xlink:href="#HiraginoSansGB-W3-20" x="1948.899582"/>
     <use xlink:href="#HiraginoSansGB-W3-43" x="1982.19957"/>
     <use xlink:href="#HiraginoSansGB-W3-6f" x="2057.799561"/>
     <use xlink:href="#HiraginoSansGB-W3-6f" x="2120.299545"/>
     <use xlink:href="#HiraginoSansGB-W3-72" x="2182.79953"/>
     <use xlink:href="#HiraginoSansGB-W3-64" x="2225.799515"/>
     <use xlink:href="#HiraginoSansGB-W3-69" x="2290.399506"/>
     <use xlink:href="#HiraginoSansGB-W3-6e" x="2314.199493"/>
     <use xlink:href="#HiraginoSansGB-W3-61" x="2375.999481"/>
     <use xlink:href="#HiraginoSansGB-W3-74" x="2433.499466"/>
     <use xlink:href="#HiraginoSansGB-W3-69" x="2472.699463"/>
     <use xlink:href="#HiraginoSansGB-W3-6f" x="2496.499451"/>
     <use xlink:href="#HiraginoSansGB-W3-6e" x="2558.999435"/>
     <use xlink:href="#HiraginoSansGB-W3-20" x="2620.799423"/>
     <use xlink:href="#HiraginoSansGB-W3-20" x="2654.099411"/>
     <use xlink:href="#HiraginoSansGB-W3-7c" x="2687.399399"/>
     <use xlink:href="#HiraginoSansGB-W3-20" x="2724.899384"/>
     <use xlink:href="#HiraginoSansGB-W3-20" x="2758.199371"/>
     <use xlink:href="#HiraginoSansGB-W3-53" x="2791.499359"/>
     <use xlink:href="#HiraginoSansGB-W3-65" x="2858.399353"/>
     <use xlink:href="#HiraginoSansGB-W3-6c" x="2917.199341"/>
     <use xlink:href="#HiraginoSansGB-W3-66" x="2940.399338"/>
     <use xlink:href="#HiraginoSansGB-W3-2d" x="2982.099335"/>
     <use xlink:href="#HiraginoSansGB-W3-43" x="3017.899323"/>
     <use xlink:href="#HiraginoSansGB-W3-6f" x="3093.499313"/>
     <use xlink:href="#HiraginoSansGB-W3-6c" x="3155.999298"/>
     <use xlink:href="#HiraginoSansGB-W3-6c" x="3179.199295"/>
     <use xlink:href="#HiraginoSansGB-W3-69" x="3202.399292"/>
     <use xlink:href="#HiraginoSansGB-W3-73" x="3226.19928"/>
     <use xlink:href="#HiraginoSansGB-W3-69" x="3279.899277"/>
     <use xlink:href="#HiraginoSansGB-W3-6f" x="3303.699265"/>
     <use xlink:href="#HiraginoSansGB-W3-6e" x="3366.199249"/>
     <use xlink:href="#HiraginoSansGB-W3-20" x="3427.999237"/>
     <use xlink:href="#HiraginoSansGB-W3-41" x="3461.299225"/>
     <use xlink:href="#HiraginoSansGB-W3-76" x="3536.29921"/>
     <use xlink:href="#HiraginoSansGB-W3-6f" x="3590.699203"/>
     <use xlink:href="#HiraginoSansGB-W3-69" x="3653.199188"/>
     <use xlink:href="#HiraginoSansGB-W3-64" x="3676.999176"/>
     <use xlink:href="#HiraginoSansGB-W3-61" x="3741.599167"/>
     <use xlink:href="#HiraginoSansGB-W3-6e" x="3799.099152"/>
     <use xlink:href="#HiraginoSansGB-W3-63" x="3860.899139"/>
     <use xlink:href="#HiraginoSansGB-W3-65" x="3918.699127"/>
     <use xlink:href="#HiraginoSansGB-W3-20" x="3977.499115"/>
     <use xlink:href="#HiraginoSansGB-W3-20" x="4010.799103"/>
     <use xlink:href="#HiraginoSansGB-W3-7c" x="4044.099091"/>
     <use xlink:href="#HiraginoSansGB-W3-20" x="4081.599075"/>
     <use xlink:href="#HiraginoSansGB-W3-20" x="4114.899063"/>
     <use xlink:href="#HiraginoSansGB-W3-4f" x="4148.199051"/>
     <use xlink:href="#HiraginoSansGB-W3-62" x="4227.699036"/>
     <use xlink:href="#HiraginoSansGB-W3-73" x="4292.299026"/>
     <use xlink:href="#HiraginoSansGB-W3-74" x="4345.999023"/>
     <use xlink:href="#HiraginoSansGB-W3-61" x="4385.19902"/>
     <use xlink:href="#HiraginoSansGB-W3-63" x="4442.699005"/>
     <use xlink:href="#HiraginoSansGB-W3-6c" x="4500.498993"/>
     <use xlink:href="#HiraginoSansGB-W3-65" x="4523.69899"/>
     <use xlink:href="#HiraginoSansGB-W3-20" x="4582.498978"/>
     <use xlink:href="#HiraginoSansGB-W3-41" x="4615.798965"/>
     <use xlink:href="#HiraginoSansGB-W3-76" x="4690.79895"/>
     <use xlink:href="#HiraginoSansGB-W3-6f" x="4745.198944"/>
     <use xlink:href="#HiraginoSansGB-W3-69" x="4807.698929"/>
     <use xlink:href="#HiraginoSansGB-W3-64" x="4831.498917"/>
     <use xlink:href="#HiraginoSansGB-W3-61" x="4896.098907"/>
     <use xlink:href="#HiraginoSansGB-W3-6e" x="4953.598892"/>
     <use xlink:href="#HiraginoSansGB-W3-63" x="5015.39888"/>
     <use xlink:href="#HiraginoSansGB-W3-65" x="5073.198868"/>
    </g>
   </g>
   <g id="text_9">
    <!-- Layer 1  —  Balance &amp; Gait -->
    <g style="fill: #ffffff" transform="translate(310.888906 408.971309) scale(0.13 -0.13)">
     <defs>
      <path id="HiraginoSansGB-W3-31" d="M 1030 4429 
C 1216 4454 1382 4467 1587 4467 
L 1933 4467 
L 1933 762 
C 1933 467 1920 262 1882 38 
L 2490 38 
C 2451 275 2438 461 2438 762 
L 2438 3872 
C 2438 4218 2458 4544 2496 4934 
C 2285 4909 2182 4902 1965 4902 
L 1562 4902 
C 1318 4902 1197 4909 1030 4934 
L 1030 4429 
z
" transform="scale(0.015625)"/>
      <path id="HiraginoSansGB-W3-47" d="M 3878 2042 
L 3878 755 
C 3501 512 3091 397 2586 397 
C 2080 397 1683 550 1395 858 
C 1043 1235 858 1798 858 2483 
C 858 3770 1504 4557 2560 4557 
C 3245 4557 3674 4262 3904 3635 
L 4403 3802 
C 4262 4147 4147 4333 3936 4531 
C 3597 4845 3136 5005 2566 5005 
C 1203 5005 333 4026 333 2483 
C 333 1619 621 883 1120 442 
C 1491 122 1971 -32 2579 -32 
C 2906 -32 3264 13 3533 90 
C 3827 173 4019 262 4403 486 
C 4365 742 4358 896 4358 1197 
L 4358 1786 
C 4358 2080 4365 2240 4403 2509 
C 4205 2490 4026 2483 3725 2483 
L 3539 2483 
C 3194 2483 3034 2490 2842 2522 
L 2842 2003 
C 3021 2035 3168 2042 3501 2042 
L 3878 2042 
z
" transform="scale(0.015625)"/>
     </defs>
     <use xlink:href="#HiraginoSansGB-W3-4c"/>
     <use xlink:href="#HiraginoSansGB-W3-61" x="60.199997"/>
     <use xlink:href="#HiraginoSansGB-W3-79" x="117.699982"/>
     <use xlink:href="#HiraginoSansGB-W3-65" x="173.099976"/>
     <use xlink:href="#HiraginoSansGB-W3-72" x="231.899963"/>
     <use xlink:href="#HiraginoSansGB-W3-20" x="274.899948"/>
     <use xlink:href="#HiraginoSansGB-W3-31" x="308.199936"/>
     <use xlink:href="#HiraginoSansGB-W3-20" x="373.899933"/>
     <use xlink:href="#HiraginoSansGB-W3-20" x="407.199921"/>
     <use xlink:href="#HiraginoSansGB-W3-2014" x="440.499908"/>
     <use xlink:href="#HiraginoSansGB-W3-20" x="540.499893"/>
     <use xlink:href="#HiraginoSansGB-W3-20" x="573.799881"/>
     <use xlink:href="#HiraginoSansGB-W3-42" x="607.099869"/>
     <use xlink:href="#HiraginoSansGB-W3-61" x="678.29985"/>
     <use xlink:href="#HiraginoSansGB-W3-6c" x="735.799835"/>
     <use xlink:href="#HiraginoSansGB-W3-61" x="758.999832"/>
     <use xlink:href="#HiraginoSansGB-W3-6e" x="816.499817"/>
     <use xlink:href="#HiraginoSansGB-W3-63" x="878.299805"/>
     <use xlink:href="#HiraginoSansGB-W3-65" x="936.099792"/>
     <use xlink:href="#HiraginoSansGB-W3-20" x="994.89978"/>
     <use xlink:href="#HiraginoSansGB-W3-26" x="1028.199768"/>
     <use xlink:href="#HiraginoSansGB-W3-20" x="1107.89975"/>
     <use xlink:href="#HiraginoSansGB-W3-47" x="1141.199738"/>
     <use xlink:href="#HiraginoSansGB-W3-61" x="1216.599731"/>
     <use xlink:href="#HiraginoSansGB-W3-69" x="1274.099716"/>
     <use xlink:href="#HiraginoSansGB-W3-74" x="1297.899704"/>
    </g>
   </g>
   <g id="text_10">
    <!-- MPC (Model Predictive Control)  +  RL Policy  |  Real-Time Stability  |  Slip Recovery  |  Dynamic Response -->
    <g style="fill: #ffffff; opacity: 0.95" transform="translate(134.266406 445.249313) scale(0.1 -0.1)">
     <use xlink:href="#HiraginoSansGB-W3-4d"/>
     <use xlink:href="#HiraginoSansGB-W3-50" x="94.499985"/>
     <use xlink:href="#HiraginoSansGB-W3-43" x="160.699982"/>
     <use xlink:href="#HiraginoSansGB-W3-20" x="236.299973"/>
     <use xlink:href="#HiraginoSansGB-W3-28" x="269.59996"/>
     <use xlink:href="#HiraginoSansGB-W3-4d" x="305.199951"/>
     <use xlink:href="#HiraginoSansGB-W3-6f" x="399.699936"/>
     <use xlink:href="#HiraginoSansGB-W3-64" x="462.199921"/>
     <use xlink:href="#HiraginoSansGB-W3-65" x="526.799911"/>
     <use xlink:href="#HiraginoSansGB-W3-6c" x="585.599899"/>
     <use xlink:href="#HiraginoSansGB-W3-20" x="608.799896"/>
     <use xlink:href="#HiraginoSansGB-W3-50" x="642.099884"/>
     <use xlink:href="#HiraginoSansGB-W3-72" x="708.299881"/>
     <use xlink:href="#HiraginoSansGB-W3-65" x="751.299866"/>
     <use xlink:href="#HiraginoSansGB-W3-64" x="810.099854"/>
     <use xlink:href="#HiraginoSansGB-W3-69" x="874.699844"/>
     <use xlink:href="#HiraginoSansGB-W3-63" x="898.499832"/>
     <use xlink:href="#HiraginoSansGB-W3-74" x="956.29982"/>
     <use xlink:href="#HiraginoSansGB-W3-69" x="995.499817"/>
     <use xlink:href="#HiraginoSansGB-W3-76" x="1019.299805"/>
     <use xlink:href="#HiraginoSansGB-W3-65" x="1073.699799"/>
     <use xlink:href="#HiraginoSansGB-W3-20" x="1132.499786"/>
     <use xlink:href="#HiraginoSansGB-W3-43" x="1165.799774"/>
     <use xlink:href="#HiraginoSansGB-W3-6f" x="1241.399765"/>
     <use xlink:href="#HiraginoSansGB-W3-6e" x="1303.89975"/>
     <use xlink:href="#HiraginoSansGB-W3-74" x="1365.699738"/>
     <use xlink:href="#HiraginoSansGB-W3-72" x="1404.899734"/>
     <use xlink:href="#HiraginoSansGB-W3-6f" x="1447.899719"/>
     <use xlink:href="#HiraginoSansGB-W3-6c" x="1510.399704"/>
     <use xlink:href="#HiraginoSansGB-W3-29" x="1533.599701"/>
     <use xlink:href="#HiraginoSansGB-W3-20" x="1569.199692"/>
     <use xlink:href="#HiraginoSansGB-W3-20" x="1602.49968"/>
     <use xlink:href="#HiraginoSansGB-W3-2b" x="1635.799667"/>
     <use xlink:href="#HiraginoSansGB-W3-20" x="1701.399658"/>
     <use xlink:href="#HiraginoSansGB-W3-20" x="1734.699646"/>
     <use xlink:href="#HiraginoSansGB-W3-52" x="1767.999634"/>
     <use xlink:href="#HiraginoSansGB-W3-4c" x="1840.599625"/>
     <use xlink:href="#HiraginoSansGB-W3-20" x="1900.799622"/>
     <use xlink:href="#HiraginoSansGB-W3-50" x="1934.099609"/>
     <use xlink:href="#HiraginoSansGB-W3-6f" x="2000.299606"/>
     <use xlink:href="#HiraginoSansGB-W3-6c" x="2062.799591"/>
     <use xlink:href="#HiraginoSansGB-W3-69" x="2085.999588"/>
     <use xlink:href="#HiraginoSansGB-W3-63" x="2109.799576"/>
     <use xlink:href="#HiraginoSansGB-W3-79" x="2167.599564"/>
     <use xlink:href="#HiraginoSansGB-W3-20" x="2222.999557"/>
     <use xlink:href="#HiraginoSansGB-W3-20" x="2256.299545"/>
     <use xlink:href="#HiraginoSansGB-W3-7c" x="2289.599533"/>
     <use xlink:href="#HiraginoSansGB-W3-20" x="2327.099518"/>
     <use xlink:href="#HiraginoSansGB-W3-20" x="2360.399506"/>
     <use xlink:href="#HiraginoSansGB-W3-52" x="2393.699493"/>
     <use xlink:href="#HiraginoSansGB-W3-65" x="2466.299484"/>
     <use xlink:href="#HiraginoSansGB-W3-61" x="2525.099472"/>
     <use xlink:href="#HiraginoSansGB-W3-6c" x="2582.599457"/>
     <use xlink:href="#HiraginoSansGB-W3-2d" x="2605.799454"/>
     <use xlink:href="#HiraginoSansGB-W3-54" x="2641.599442"/>
     <use xlink:href="#HiraginoSansGB-W3-69" x="2706.499435"/>
     <use xlink:href="#HiraginoSansGB-W3-6d" x="2730.299423"/>
     <use xlink:href="#HiraginoSansGB-W3-65" x="2823.399414"/>
     <use xlink:href="#HiraginoSansGB-W3-20" x="2882.199402"/>
     <use xlink:href="#HiraginoSansGB-W3-53" x="2915.49939"/>
     <use xlink:href="#HiraginoSansGB-W3-74" x="2982.399384"/>
     <use xlink:href="#HiraginoSansGB-W3-61" x="3021.59938"/>
     <use xlink:href="#HiraginoSansGB-W3-62" x="3079.099365"/>
     <use xlink:href="#HiraginoSansGB-W3-69" x="3143.699356"/>
     <use xlink:href="#HiraginoSansGB-W3-6c" x="3167.499344"/>
     <use xlink:href="#HiraginoSansGB-W3-69" x="3190.699341"/>
     <use xlink:href="#HiraginoSansGB-W3-74" x="3214.499329"/>
     <use xlink:href="#HiraginoSansGB-W3-79" x="3253.699326"/>
     <use xlink:href="#HiraginoSansGB-W3-20" x="3309.099319"/>
     <use xlink:href="#HiraginoSansGB-W3-20" x="3342.399307"/>
     <use xlink:href="#HiraginoSansGB-W3-7c" x="3375.699295"/>
     <use xlink:href="#HiraginoSansGB-W3-20" x="3413.19928"/>
     <use xlink:href="#HiraginoSansGB-W3-20" x="3446.499268"/>
     <use xlink:href="#HiraginoSansGB-W3-53" x="3479.799255"/>
     <use xlink:href="#HiraginoSansGB-W3-6c" x="3546.699249"/>
     <use xlink:href="#HiraginoSansGB-W3-69" x="3569.899246"/>
     <use xlink:href="#HiraginoSansGB-W3-70" x="3593.699234"/>
     <use xlink:href="#HiraginoSansGB-W3-20" x="3658.399231"/>
     <use xlink:href="#HiraginoSansGB-W3-52" x="3691.699219"/>
     <use xlink:href="#HiraginoSansGB-W3-65" x="3764.29921"/>
     <use xlink:href="#HiraginoSansGB-W3-63" x="3823.099197"/>
     <use xlink:href="#HiraginoSansGB-W3-6f" x="3880.899185"/>
     <use xlink:href="#HiraginoSansGB-W3-76" x="3943.39917"/>
     <use xlink:href="#HiraginoSansGB-W3-65" x="3997.799164"/>
     <use xlink:href="#HiraginoSansGB-W3-72" x="4056.599152"/>
     <use xlink:href="#HiraginoSansGB-W3-79" x="4099.599136"/>
     <use xlink:href="#HiraginoSansGB-W3-20" x="4154.99913"/>
     <use xlink:href="#HiraginoSansGB-W3-20" x="4188.299118"/>
     <use xlink:href="#HiraginoSansGB-W3-7c" x="4221.599106"/>
     <use xlink:href="#HiraginoSansGB-W3-20" x="4259.099091"/>
     <use xlink:href="#HiraginoSansGB-W3-20" x="4292.399078"/>
     <use xlink:href="#HiraginoSansGB-W3-44" x="4325.699066"/>
     <use xlink:href="#HiraginoSansGB-W3-79" x="4401.499054"/>
     <use xlink:href="#HiraginoSansGB-W3-6e" x="4456.899048"/>
     <use xlink:href="#HiraginoSansGB-W3-61" x="4518.699036"/>
     <use xlink:href="#HiraginoSansGB-W3-6d" x="4576.19902"/>
     <use xlink:href="#HiraginoSansGB-W3-69" x="4669.299011"/>
     <use xlink:href="#HiraginoSansGB-W3-63" x="4693.098999"/>
     <use xlink:href="#HiraginoSansGB-W3-20" x="4750.898987"/>
     <use xlink:href="#HiraginoSansGB-W3-52" x="4784.198975"/>
     <use xlink:href="#HiraginoSansGB-W3-65" x="4856.798965"/>
     <use xlink:href="#HiraginoSansGB-W3-73" x="4915.598953"/>
     <use xlink:href="#HiraginoSansGB-W3-70" x="4969.29895"/>
     <use xlink:href="#HiraginoSansGB-W3-6f" x="5033.998947"/>
     <use xlink:href="#HiraginoSansGB-W3-6e" x="5096.498932"/>
     <use xlink:href="#HiraginoSansGB-W3-73" x="5158.29892"/>
     <use xlink:href="#HiraginoSansGB-W3-65" x="5211.998917"/>
    </g>
   </g>
   <g id="patch_6">
    <path d="M 397.8 142.255819 
Q 397.8 154.115925 397.8 163.180945 
" style="fill: none; stroke: #8b949e; stroke-width: 2.5; stroke-linecap: round"/>
    <path d="M 399.8 159.180945 
L 397.8 163.180945 
L 395.8 159.180945 
" style="fill: none; stroke: #8b949e; stroke-width: 2.5; stroke-linecap: round"/>
   </g>
   <g id="patch_7">
    <path d="M 397.8 242.047819 
Q 397.8 253.907925 397.8 262.972945 
" style="fill: none; stroke: #8b949e; stroke-width: 2.5; stroke-linecap: round"/>
    <path d="M 399.8 258.972945 
L 397.8 262.972945 
L 395.8 258.972945 
" style="fill: none; stroke: #8b949e; stroke-width: 2.5; stroke-linecap: round"/>
   </g>
   <g id="patch_8">
    <path d="M 397.8 341.839819 
Q 397.8 353.699925 397.8 362.764945 
" style="fill: none; stroke: #8b949e; stroke-width: 2.5; stroke-linecap: round"/>
    <path d="M 399.8 358.764945 
L 397.8 362.764945 
L 395.8 358.764945 
" style="fill: none; stroke: #8b949e; stroke-width: 2.5; stroke-linecap: round"/>
   </g>
   <g id="text_11">
    <g id="patch_9">
     <path d="M 243.89375 551.075125 
L 551.70625 551.075125 
Q 555.70625 551.075125 555.70625 547.075125 
L 555.70625 498.490125 
Q 555.70625 494.490125 551.70625 494.490125 
L 243.89375 494.490125 
Q 239.89375 494.490125 239.89375 498.490125 
L 239.89375 547.075125 
Q 239.89375 551.075125 243.89375 551.075125 
z
" style="fill: #161b22; stroke: #30363d; stroke-width: 1.5; stroke-linejoin: miter"/>
    </g>
    <!-- Philosophy: Preserve MPC as trustworthy physical foundation; -->
    <g style="fill: #8b949e" transform="translate(243.89375 506.308875) scale(0.1 -0.1)">
     <defs>
      <path id="HiraginoSansGB-W3-3b" d="M 1082 672 
L 448 672 
L 448 38 
L 813 38 
C 813 -358 768 -454 506 -576 
L 678 -787 
C 1005 -589 1082 -435 1082 38 
L 1082 672 
z
M 448 3488 
L 448 2854 
L 1082 2854 
L 1082 3488 
L 448 3488 
z
" transform="scale(0.015625)"/>
     </defs>
     <use xlink:href="#HiraginoSansGB-W3-50"/>
     <use xlink:href="#HiraginoSansGB-W3-68" x="66.199997"/>
     <use xlink:href="#HiraginoSansGB-W3-69" x="127.899994"/>
     <use xlink:href="#HiraginoSansGB-W3-6c" x="151.699982"/>
     <use xlink:href="#HiraginoSansGB-W3-6f" x="174.899979"/>
     <use xlink:href="#HiraginoSansGB-W3-73" x="237.399963"/>
     <use xlink:href="#HiraginoSansGB-W3-6f" x="291.09996"/>
     <use xlink:href="#HiraginoSansGB-W3-70" x="353.599945"/>
     <use xlink:href="#HiraginoSansGB-W3-68" x="418.299942"/>
     <use xlink:href="#HiraginoSansGB-W3-79" x="479.999939"/>
     <use xlink:href="#HiraginoSansGB-W3-3a" x="535.399933"/>
     <use xlink:href="#HiraginoSansGB-W3-20" x="559.399918"/>
     <use xlink:href="#HiraginoSansGB-W3-50" x="592.699905"/>
     <use xlink:href="#HiraginoSansGB-W3-72" x="658.899902"/>
     <use xlink:href="#HiraginoSansGB-W3-65" x="701.899887"/>
     <use xlink:href="#HiraginoSansGB-W3-73" x="760.699875"/>
     <use xlink:href="#HiraginoSansGB-W3-65" x="814.399872"/>
     <use xlink:href="#HiraginoSansGB-W3-72" x="873.19986"/>
     <use xlink:href="#HiraginoSansGB-W3-76" x="916.199844"/>
     <use xlink:href="#HiraginoSansGB-W3-65" x="970.599838"/>
     <use xlink:href="#HiraginoSansGB-W3-20" x="1029.399826"/>
     <use xlink:href="#HiraginoSansGB-W3-4d" x="1062.699814"/>
     <use xlink:href="#HiraginoSansGB-W3-50" x="1157.199799"/>
     <use xlink:href="#HiraginoSansGB-W3-43" x="1223.399796"/>
     <use xlink:href="#HiraginoSansGB-W3-20" x="1298.999786"/>
     <use xlink:href="#HiraginoSansGB-W3-61" x="1332.299774"/>
     <use xlink:href="#HiraginoSansGB-W3-73" x="1389.799759"/>
     <use xlink:href="#HiraginoSansGB-W3-20" x="1443.499756"/>
     <use xlink:href="#HiraginoSansGB-W3-74" x="1476.799744"/>
     <use xlink:href="#HiraginoSansGB-W3-72" x="1515.999741"/>
     <use xlink:href="#HiraginoSansGB-W3-75" x="1558.999725"/>
     <use xlink:href="#HiraginoSansGB-W3-73" x="1620.799713"/>
     <use xlink:href="#HiraginoSansGB-W3-74" x="1674.49971"/>
     <use xlink:href="#HiraginoSansGB-W3-77" x="1713.699707"/>
     <use xlink:href="#HiraginoSansGB-W3-6f" x="1790.699692"/>
     <use xlink:href="#HiraginoSansGB-W3-72" x="1853.199677"/>
     <use xlink:href="#HiraginoSansGB-W3-74" x="1896.199661"/>
     <use xlink:href="#HiraginoSansGB-W3-68" x="1935.399658"/>
     <use xlink:href="#HiraginoSansGB-W3-79" x="1997.099655"/>
     <use xlink:href="#HiraginoSansGB-W3-20" x="2052.499649"/>
     <use xlink:href="#HiraginoSansGB-W3-70" x="2085.799637"/>
     <use xlink:href="#HiraginoSansGB-W3-68" x="2150.499634"/>
     <use xlink:href="#HiraginoSansGB-W3-79" x="2212.199631"/>
     <use xlink:href="#HiraginoSansGB-W3-73" x="2267.599625"/>
     <use xlink:href="#HiraginoSansGB-W3-69" x="2321.299622"/>
     <use xlink:href="#HiraginoSansGB-W3-63" x="2345.099609"/>
     <use xlink:href="#HiraginoSansGB-W3-61" x="2402.899597"/>
     <use xlink:href="#HiraginoSansGB-W3-6c" x="2460.399582"/>
     <use xlink:href="#HiraginoSansGB-W3-20" x="2483.599579"/>
     <use xlink:href="#HiraginoSansGB-W3-66" x="2516.899567"/>
     <use xlink:href="#HiraginoSansGB-W3-6f" x="2558.599564"/>
     <use xlink:href="#HiraginoSansGB-W3-75" x="2621.099548"/>
     <use xlink:href="#HiraginoSansGB-W3-6e" x="2682.899536"/>
     <use xlink:href="#HiraginoSansGB-W3-64" x="2744.699524"/>
     <use xlink:href="#HiraginoSansGB-W3-61" x="2809.299515"/>
     <use xlink:href="#HiraginoSansGB-W3-74" x="2866.7995"/>
     <use xlink:href="#HiraginoSansGB-W3-69" x="2905.999496"/>
     <use xlink:href="#HiraginoSansGB-W3-6f" x="2929.799484"/>
     <use xlink:href="#HiraginoSansGB-W3-6e" x="2992.299469"/>
     <use xlink:href="#HiraginoSansGB-W3-3b" x="3054.099457"/>
    </g>
    <!-- introduce learning where MPC cannot cover edge cases; -->
    <g style="fill: #8b949e" transform="translate(257.559375 519.33825) scale(0.1 -0.1)">
     <use xlink:href="#HiraginoSansGB-W3-69"/>
     <use xlink:href="#HiraginoSansGB-W3-6e" x="23.799988"/>
     <use xlink:href="#HiraginoSansGB-W3-74" x="85.599976"/>
     <use xlink:href="#HiraginoSansGB-W3-72" x="124.799973"/>
     <use xlink:href="#HiraginoSansGB-W3-6f" x="167.799957"/>
     <use xlink:href="#HiraginoSansGB-W3-64" x="230.299942"/>
     <use xlink:href="#HiraginoSansGB-W3-75" x="294.899933"/>
     <use xlink:href="#HiraginoSansGB-W3-63" x="356.699921"/>
     <use xlink:href="#HiraginoSansGB-W3-65" x="414.499908"/>
     <use xlink:href="#HiraginoSansGB-W3-20" x="473.299896"/>
     <use xlink:href="#HiraginoSansGB-W3-6c" x="506.599884"/>
     <use xlink:href="#HiraginoSansGB-W3-65" x="529.799881"/>
     <use xlink:href="#HiraginoSansGB-W3-61" x="588.599869"/>
     <use xlink:href="#HiraginoSansGB-W3-72" x="646.099854"/>
     <use xlink:href="#HiraginoSansGB-W3-6e" x="689.099838"/>
     <use xlink:href="#HiraginoSansGB-W3-69" x="750.899826"/>
     <use xlink:href="#HiraginoSansGB-W3-6e" x="774.699814"/>
     <use xlink:href="#HiraginoSansGB-W3-67" x="836.499802"/>
     <use xlink:href="#HiraginoSansGB-W3-20" x="900.599792"/>
     <use xlink:href="#HiraginoSansGB-W3-77" x="933.89978"/>
     <use xlink:href="#HiraginoSansGB-W3-68" x="1010.899765"/>
     <use xlink:href="#HiraginoSansGB-W3-65" x="1072.599762"/>
     <use xlink:href="#HiraginoSansGB-W3-72" x="1131.39975"/>
     <use xlink:href="#HiraginoSansGB-W3-65" x="1174.399734"/>
     <use xlink:href="#HiraginoSansGB-W3-20" x="1233.199722"/>
     <use xlink:href="#HiraginoSansGB-W3-4d" x="1266.49971"/>
     <use xlink:href="#HiraginoSansGB-W3-50" x="1360.999695"/>
     <use xlink:href="#HiraginoSansGB-W3-43" x="1427.199692"/>
     <use xlink:href="#HiraginoSansGB-W3-20" x="1502.799683"/>
     <use xlink:href="#HiraginoSansGB-W3-63" x="1536.09967"/>
     <use xlink:href="#HiraginoSansGB-W3-61" x="1593.899658"/>
     <use xlink:href="#HiraginoSansGB-W3-6e" x="1651.399643"/>
     <use xlink:href="#HiraginoSansGB-W3-6e" x="1713.199631"/>
     <use xlink:href="#HiraginoSansGB-W3-6f" x="1774.999619"/>
     <use xlink:href="#HiraginoSansGB-W3-74" x="1837.499603"/>
     <use xlink:href="#HiraginoSansGB-W3-20" x="1876.6996"/>
     <use xlink:href="#HiraginoSansGB-W3-63" x="1909.999588"/>
     <use xlink:href="#HiraginoSansGB-W3-6f" x="1967.799576"/>
     <use xlink:href="#HiraginoSansGB-W3-76" x="2030.299561"/>
     <use xlink:href="#HiraginoSansGB-W3-65" x="2084.699554"/>
     <use xlink:href="#HiraginoSansGB-W3-72" x="2143.499542"/>
     <use xlink:href="#HiraginoSansGB-W3-20" x="2186.499527"/>
     <use xlink:href="#HiraginoSansGB-W3-65" x="2219.799515"/>
     <use xlink:href="#HiraginoSansGB-W3-64" x="2278.599503"/>
     <use xlink:href="#HiraginoSansGB-W3-67" x="2343.199493"/>
     <use xlink:href="#HiraginoSansGB-W3-65" x="2407.299484"/>
     <use xlink:href="#HiraginoSansGB-W3-20" x="2466.099472"/>
     <use xlink:href="#HiraginoSansGB-W3-63" x="2499.39946"/>
     <use xlink:href="#HiraginoSansGB-W3-61" x="2557.199448"/>
     <use xlink:href="#HiraginoSansGB-W3-73" x="2614.699432"/>
     <use xlink:href="#HiraginoSansGB-W3-65" x="2668.399429"/>
     <use xlink:href="#HiraginoSansGB-W3-73" x="2727.199417"/>
     <use xlink:href="#HiraginoSansGB-W3-3b" x="2780.899414"/>
    </g>
    <!-- gradually migrate high-level behavior toward data-driven, -->
    <g style="fill: #8b949e" transform="translate(256.957812 532.152) scale(0.1 -0.1)">
     <defs>
      <path id="HiraginoSansGB-W3-2c" d="M 1088 672 
L 448 672 
L 448 38 
L 819 38 
C 819 -358 774 -454 512 -576 
L 685 -787 
C 1011 -589 1088 -435 1088 38 
L 1088 672 
z
" transform="scale(0.015625)"/>
     </defs>
     <use xlink:href="#HiraginoSansGB-W3-67"/>
     <use xlink:href="#HiraginoSansGB-W3-72" x="64.099991"/>
     <use xlink:href="#HiraginoSansGB-W3-61" x="107.099976"/>
     <use xlink:href="#HiraginoSansGB-W3-64" x="164.59996"/>
     <use xlink:href="#HiraginoSansGB-W3-75" x="229.199951"/>
     <use xlink:href="#HiraginoSansGB-W3-61" x="290.999939"/>
     <use xlink:href="#HiraginoSansGB-W3-6c" x="348.499924"/>
     <use xlink:href="#HiraginoSansGB-W3-6c" x="371.699921"/>
     <use xlink:href="#HiraginoSansGB-W3-79" x="394.899918"/>
     <use xlink:href="#HiraginoSansGB-W3-20" x="450.299911"/>
     <use xlink:href="#HiraginoSansGB-W3-6d" x="483.599899"/>
     <use xlink:href="#HiraginoSansGB-W3-69" x="576.69989"/>
     <use xlink:href="#HiraginoSansGB-W3-67" x="600.499878"/>
     <use xlink:href="#HiraginoSansGB-W3-72" x="664.599869"/>
     <use xlink:href="#HiraginoSansGB-W3-61" x="707.599854"/>
     <use xlink:href="#HiraginoSansGB-W3-74" x="765.099838"/>
     <use xlink:href="#HiraginoSansGB-W3-65" x="804.299835"/>
     <use xlink:href="#HiraginoSansGB-W3-20" x="863.099823"/>
     <use xlink:href="#HiraginoSansGB-W3-68" x="896.399811"/>
     <use xlink:href="#HiraginoSansGB-W3-69" x="958.099808"/>
     <use xlink:href="#HiraginoSansGB-W3-67" x="981.899796"/>
     <use xlink:href="#HiraginoSansGB-W3-68" x="1045.999786"/>
     <use xlink:href="#HiraginoSansGB-W3-2d" x="1107.699783"/>
     <use xlink:href="#HiraginoSansGB-W3-6c" x="1143.499771"/>
     <use xlink:href="#HiraginoSansGB-W3-65" x="1166.699768"/>
     <use xlink:href="#HiraginoSansGB-W3-76" x="1225.499756"/>
     <use xlink:href="#HiraginoSansGB-W3-65" x="1279.89975"/>
     <use xlink:href="#HiraginoSansGB-W3-6c" x="1338.699738"/>
     <use xlink:href="#HiraginoSansGB-W3-20" x="1361.899734"/>
     <use xlink:href="#HiraginoSansGB-W3-62" x="1395.199722"/>
     <use xlink:href="#HiraginoSansGB-W3-65" x="1459.799713"/>
     <use xlink:href="#HiraginoSansGB-W3-68" x="1518.599701"/>
     <use xlink:href="#HiraginoSansGB-W3-61" x="1580.299698"/>
     <use xlink:href="#HiraginoSansGB-W3-76" x="1637.799683"/>
     <use xlink:href="#HiraginoSansGB-W3-69" x="1692.199677"/>
     <use xlink:href="#HiraginoSansGB-W3-6f" x="1715.999664"/>
     <use xlink:href="#HiraginoSansGB-W3-72" x="1778.499649"/>
     <use xlink:href="#HiraginoSansGB-W3-20" x="1821.499634"/>
     <use xlink:href="#HiraginoSansGB-W3-74" x="1854.799622"/>
     <use xlink:href="#HiraginoSansGB-W3-6f" x="1893.999619"/>
     <use xlink:href="#HiraginoSansGB-W3-77" x="1956.499603"/>
     <use xlink:href="#HiraginoSansGB-W3-61" x="2033.499588"/>
     <use xlink:href="#HiraginoSansGB-W3-72" x="2090.999573"/>
     <use xlink:href="#HiraginoSansGB-W3-64" x="2133.999557"/>
     <use xlink:href="#HiraginoSansGB-W3-20" x="2198.599548"/>
     <use xlink:href="#HiraginoSansGB-W3-64" x="2231.899536"/>
     <use xlink:href="#HiraginoSansGB-W3-61" x="2296.499527"/>
     <use xlink:href="#HiraginoSansGB-W3-74" x="2353.999512"/>
     <use xlink:href="#HiraginoSansGB-W3-61" x="2393.199509"/>
     <use xlink:href="#HiraginoSansGB-W3-2d" x="2450.699493"/>
     <use xlink:href="#HiraginoSansGB-W3-64" x="2486.499481"/>
     <use xlink:href="#HiraginoSansGB-W3-72" x="2551.099472"/>
     <use xlink:href="#HiraginoSansGB-W3-69" x="2594.099457"/>
     <use xlink:href="#HiraginoSansGB-W3-76" x="2617.899445"/>
     <use xlink:href="#HiraginoSansGB-W3-65" x="2672.299438"/>
     <use xlink:href="#HiraginoSansGB-W3-6e" x="2731.099426"/>
     <use xlink:href="#HiraginoSansGB-W3-2c" x="2792.899414"/>
    </g>
    <!-- language-conditioned control. -->
    <g style="fill: #8b949e" transform="translate(324.147656 544.9845) scale(0.1 -0.1)">
     <defs>
      <path id="HiraginoSansGB-W3-2e" d="M 448 672 
L 448 38 
L 1082 38 
L 1082 672 
L 448 672 
z
" transform="scale(0.015625)"/>
     </defs>
     <use xlink:href="#HiraginoSansGB-W3-6c"/>
     <use xlink:href="#HiraginoSansGB-W3-61" x="23.199997"/>
     <use xlink:href="#HiraginoSansGB-W3-6e" x="80.699982"/>
     <use xlink:href="#HiraginoSansGB-W3-67" x="142.499969"/>
     <use xlink:href="#HiraginoSansGB-W3-75" x="206.59996"/>
     <use xlink:href="#HiraginoSansGB-W3-61" x="268.399948"/>
     <use xlink:href="#HiraginoSansGB-W3-67" x="325.899933"/>
     <use xlink:href="#HiraginoSansGB-W3-65" x="389.999924"/>
     <use xlink:href="#HiraginoSansGB-W3-2d" x="448.799911"/>
     <use xlink:href="#HiraginoSansGB-W3-63" x="484.599899"/>
     <use xlink:href="#HiraginoSansGB-W3-6f" x="542.399887"/>
     <use xlink:href="#HiraginoSansGB-W3-6e" x="604.899872"/>
     <use xlink:href="#HiraginoSansGB-W3-64" x="666.69986"/>
     <use xlink:href="#HiraginoSansGB-W3-69" x="731.29985"/>
     <use xlink:href="#HiraginoSansGB-W3-74" x="755.099838"/>
     <use xlink:href="#HiraginoSansGB-W3-69" x="794.299835"/>
     <use xlink:href="#HiraginoSansGB-W3-6f" x="818.099823"/>
     <use xlink:href="#HiraginoSansGB-W3-6e" x="880.599808"/>
     <use xlink:href="#HiraginoSansGB-W3-65" x="942.399796"/>
     <use xlink:href="#HiraginoSansGB-W3-64" x="1001.199783"/>
     <use xlink:href="#HiraginoSansGB-W3-20" x="1065.799774"/>
     <use xlink:href="#HiraginoSansGB-W3-63" x="1099.099762"/>
     <use xlink:href="#HiraginoSansGB-W3-6f" x="1156.89975"/>
     <use xlink:href="#HiraginoSansGB-W3-6e" x="1219.399734"/>
     <use xlink:href="#HiraginoSansGB-W3-74" x="1281.199722"/>
     <use xlink:href="#HiraginoSansGB-W3-72" x="1320.399719"/>
     <use xlink:href="#HiraginoSansGB-W3-6f" x="1363.399704"/>
     <use xlink:href="#HiraginoSansGB-W3-6c" x="1425.899689"/>
     <use xlink:href="#HiraginoSansGB-W3-2e" x="1449.099686"/>
    </g>
   </g>
  </g>
 </g>
 <defs>
  <clipPath id="paf55ce8c77">
   <rect x="7.2" y="7.2" width="781.2" height="554.4"/>
  </clipPath>
 </defs>
</svg>
